M48
; DRILL file {KiCad (5.1.6)-1} date 10/01/20 20:51:18
; FORMAT={-:-/ absolute / inch / decimal}
; #@! TF.CreationDate,2020-10-01T20:51:18-05:00
; #@! TF.GenerationSoftware,Kicad,Pcbnew,(5.1.6)-1
; #@! TF.FileFunction,Plated,1,2,PTH
FMAT,2
INCH
T1C0.0157
T2C0.0374
T3C0.0394
T4C0.0866
T5C0.0906
%
G90
G05
T1
X4.0709Y-5.4724
X4.0709Y-5.5098
X4.0709Y-5.5453
X4.0709Y-5.5807
X4.0709Y-5.6713
X4.0709Y-5.7067
X4.1063Y-5.4724
X4.1063Y-5.5098
X4.1063Y-5.5453
X4.1063Y-5.5807
X4.1063Y-5.6713
X4.1063Y-5.7067
X4.122Y-4.9213
X4.1417Y-5.4724
X4.1417Y-5.5098
X4.1417Y-5.5453
X4.1417Y-5.5807
X4.1417Y-5.6713
X4.1417Y-5.7067
X4.1772Y-5.4724
X4.1772Y-5.5098
X4.1772Y-5.5453
X4.1772Y-5.5807
X4.1772Y-5.6713
X4.1772Y-5.7067
X4.1811Y-4.9213
X4.2126Y-5.4724
X4.2126Y-5.5098
X4.2126Y-5.5453
X4.2126Y-5.5807
X4.2126Y-5.6713
X4.2126Y-5.7067
X4.2244Y-4.7638
X4.2362Y-4.8701
X4.2598Y-4.7638
X4.2707Y-5.0984
X4.2707Y-5.1457
X4.2756Y-5.437
X4.2953Y-4.7638
X4.3051Y-5.0118
X4.311Y-5.437
X4.3307Y-4.7638
X4.3514Y-5.3829
X4.3661Y-4.7638
X4.383Y-5.1746
X4.3898Y-5.3829
X4.4016Y-4.7638
X4.4085Y-4.9124
X4.437Y-4.7638
X4.4429Y-5.3907
X4.4429Y-5.4222
X4.4429Y-5.4547
X4.4429Y-5.4862
X4.4429Y-5.5187
X4.4429Y-5.5512
X4.4528Y-5.0207
X4.4606Y-5.1024
X4.4606Y-5.1378
X4.4734Y-4.7648
X4.4833Y-4.9114
X4.5Y-5.1024
X4.5Y-5.1378
X4.5098Y-4.7648
X4.5315Y-5.4547
X4.5315Y-5.4872
X4.5315Y-5.5197
X4.5315Y-5.5522
X4.5699Y-5.7874
X4.5699Y-5.8258
X4.5699Y-5.8642
X4.5974Y-5.3346
X4.5974Y-5.378
X4.6073Y-5.7874
X4.6073Y-5.8258
X4.6073Y-5.8642
X4.626Y-4.7815
X4.626Y-4.8169
X4.626Y-4.8524
X4.626Y-4.8878
X4.626Y-4.9232
X4.6299Y-5.1693
X4.6348Y-4.9636
X4.6447Y-5.7874
X4.6447Y-5.8258
X4.6447Y-5.8642
X4.6604Y-5.4173
X4.6604Y-5.4596
X4.6604Y-5.5
X4.6644Y-4.7815
X4.6644Y-4.8169
X4.6644Y-4.8524
X4.6644Y-4.8878
X4.6644Y-4.9232
X4.6693Y-5.1555
X4.6821Y-5.7874
X4.6821Y-5.8258
X4.6821Y-5.8642
X4.7037Y-4.7815
X4.7037Y-4.8169
X4.7037Y-4.8524
X4.7037Y-4.8878
X4.7037Y-4.9232
X4.7195Y-5.7874
X4.7195Y-5.8258
X4.7195Y-5.8642
X4.7205Y-5.1565
X4.7598Y-5.1565
X4.7992Y-5.1565
X4.8189Y-5.2126
X4.8189Y-5.249
X4.8189Y-5.2884
X4.8189Y-5.3278
X4.8189Y-5.3671
X4.8189Y-5.4026
X4.9518Y-5.4852
X4.9518Y-5.5207
X4.9518Y-5.5561
X4.9518Y-5.5915
X4.9518Y-5.627
X4.9547Y-5.0787
X4.9872Y-5.4852
X4.9872Y-5.5207
X4.9872Y-5.5561
X4.9872Y-5.5915
X4.9872Y-5.627
X5.0226Y-5.4852
X5.0226Y-5.5207
X5.0226Y-5.5561
X5.0226Y-5.5915
X5.0226Y-5.627
X5.0669Y-5.0994
X5.0669Y-5.1378
X5.0669Y-5.1752
X5.0669Y-5.2126
X5.0669Y-5.25
T2
X4.4469Y-5.6654
X4.5453Y-5.6654
X4.624Y-5.6654
X4.7224Y-5.6654
T3
X4.1693Y-5.2701
X4.1693Y-5.3701
X4.7874Y-4.8563
X4.8874Y-4.8563
T4
X4.0256Y-4.813
X4.0256Y-5.8169
X5.0295Y-5.8169
X5.0295Y-4.813
T5
X4.326Y-5.772
X4.8433Y-5.772
T0
M30
