%TF.GenerationSoftware,KiCad,Pcbnew,(5.1.6)-1*%
%TF.CreationDate,2020-10-01T20:51:16-05:00*%
%TF.ProjectId,USB_MP2637,5553425f-4d50-4323-9633-372e6b696361,rev?*%
%TF.SameCoordinates,Original*%
%TF.FileFunction,Soldermask,Top*%
%TF.FilePolarity,Negative*%
%FSLAX46Y46*%
G04 Gerber Fmt 4.6, Leading zero omitted, Abs format (unit mm)*
G04 Created by KiCad (PCBNEW (5.1.6)-1) date 2020-10-01 20:51:16*
%MOMM*%
%LPD*%
G01*
G04 APERTURE LIST*
%ADD10R,2.000000X1.100000*%
%ADD11R,2.000000X1.900000*%
%ADD12R,1.400000X1.750000*%
%ADD13R,1.650000X1.525000*%
%ADD14R,1.480000X0.550000*%
%ADD15C,3.900000*%
%ADD16R,1.800000X1.800000*%
%ADD17C,1.700000*%
%ADD18R,1.700000X1.600000*%
%ADD19C,3.100000*%
%ADD20R,0.350000X1.600000*%
%ADD21R,0.350000X0.900000*%
%ADD22R,0.900000X0.350000*%
%ADD23R,2.450000X3.500000*%
G04 APERTURE END LIST*
D10*
%TO.C,J4*%
X101365000Y-136350000D03*
D11*
X101365000Y-133650000D03*
D12*
X101365000Y-138175000D03*
X101365000Y-131425000D03*
D13*
X103940000Y-137287500D03*
X103940000Y-132312500D03*
D14*
X104025000Y-136100000D03*
X104025000Y-135450000D03*
X104025000Y-134800000D03*
X104025000Y-134150000D03*
X104025000Y-133500000D03*
%TD*%
%TO.C,D3*%
G36*
G01*
X107318750Y-127475000D02*
X107881250Y-127475000D01*
G75*
G02*
X108125000Y-127718750I0J-243750D01*
G01*
X108125000Y-128206250D01*
G75*
G02*
X107881250Y-128450000I-243750J0D01*
G01*
X107318750Y-128450000D01*
G75*
G02*
X107075000Y-128206250I0J243750D01*
G01*
X107075000Y-127718750D01*
G75*
G02*
X107318750Y-127475000I243750J0D01*
G01*
G37*
G36*
G01*
X107318750Y-125900000D02*
X107881250Y-125900000D01*
G75*
G02*
X108125000Y-126143750I0J-243750D01*
G01*
X108125000Y-126631250D01*
G75*
G02*
X107881250Y-126875000I-243750J0D01*
G01*
X107318750Y-126875000D01*
G75*
G02*
X107075000Y-126631250I0J243750D01*
G01*
X107075000Y-126143750D01*
G75*
G02*
X107318750Y-125900000I243750J0D01*
G01*
G37*
%TD*%
%TO.C,D2*%
G36*
G01*
X105868750Y-127500000D02*
X106431250Y-127500000D01*
G75*
G02*
X106675000Y-127743750I0J-243750D01*
G01*
X106675000Y-128231250D01*
G75*
G02*
X106431250Y-128475000I-243750J0D01*
G01*
X105868750Y-128475000D01*
G75*
G02*
X105625000Y-128231250I0J243750D01*
G01*
X105625000Y-127743750D01*
G75*
G02*
X105868750Y-127500000I243750J0D01*
G01*
G37*
G36*
G01*
X105868750Y-125925000D02*
X106431250Y-125925000D01*
G75*
G02*
X106675000Y-126168750I0J-243750D01*
G01*
X106675000Y-126656250D01*
G75*
G02*
X106431250Y-126900000I-243750J0D01*
G01*
X105868750Y-126900000D01*
G75*
G02*
X105625000Y-126656250I0J243750D01*
G01*
X105625000Y-126168750D01*
G75*
G02*
X105868750Y-125925000I243750J0D01*
G01*
G37*
%TD*%
%TO.C,D1*%
G36*
G01*
X104418750Y-127487500D02*
X104981250Y-127487500D01*
G75*
G02*
X105225000Y-127731250I0J-243750D01*
G01*
X105225000Y-128218750D01*
G75*
G02*
X104981250Y-128462500I-243750J0D01*
G01*
X104418750Y-128462500D01*
G75*
G02*
X104175000Y-128218750I0J243750D01*
G01*
X104175000Y-127731250D01*
G75*
G02*
X104418750Y-127487500I243750J0D01*
G01*
G37*
G36*
G01*
X104418750Y-125912500D02*
X104981250Y-125912500D01*
G75*
G02*
X105225000Y-126156250I0J-243750D01*
G01*
X105225000Y-126643750D01*
G75*
G02*
X104981250Y-126887500I-243750J0D01*
G01*
X104418750Y-126887500D01*
G75*
G02*
X104175000Y-126643750I0J243750D01*
G01*
X104175000Y-126156250D01*
G75*
G02*
X104418750Y-125912500I243750J0D01*
G01*
G37*
%TD*%
D15*
%TO.C,H4*%
X127750000Y-122250000D03*
%TD*%
%TO.C,H3*%
X127750000Y-147750000D03*
%TD*%
%TO.C,H2*%
X102250000Y-147750000D03*
%TD*%
%TO.C,H1*%
X102250000Y-122250000D03*
%TD*%
D16*
%TO.C,J2*%
X124140000Y-123350000D03*
X121600000Y-123350000D03*
%TD*%
%TO.C,R1*%
G36*
G01*
X123795000Y-129725000D02*
X126005000Y-129725000D01*
G75*
G02*
X126275000Y-129995000I0J-270000D01*
G01*
X126275000Y-130805000D01*
G75*
G02*
X126005000Y-131075000I-270000J0D01*
G01*
X123795000Y-131075000D01*
G75*
G02*
X123525000Y-130805000I0J270000D01*
G01*
X123525000Y-129995000D01*
G75*
G02*
X123795000Y-129725000I270000J0D01*
G01*
G37*
G36*
G01*
X123795000Y-126925000D02*
X126005000Y-126925000D01*
G75*
G02*
X126275000Y-127195000I0J-270000D01*
G01*
X126275000Y-128005000D01*
G75*
G02*
X126005000Y-128275000I-270000J0D01*
G01*
X123795000Y-128275000D01*
G75*
G02*
X123525000Y-128005000I0J270000D01*
G01*
X123525000Y-127195000D01*
G75*
G02*
X123795000Y-126925000I270000J0D01*
G01*
G37*
%TD*%
D17*
%TO.C,J3*%
X119950000Y-143900000D03*
X117450000Y-143900000D03*
X115450000Y-143900000D03*
D18*
X112950000Y-143900000D03*
D19*
X123020000Y-146610000D03*
X109880000Y-146610000D03*
%TD*%
%TO.C,C10*%
G36*
G01*
X114577500Y-126315000D02*
X114972500Y-126315000D01*
G75*
G02*
X115145000Y-126487500I0J-172500D01*
G01*
X115145000Y-126832500D01*
G75*
G02*
X114972500Y-127005000I-172500J0D01*
G01*
X114577500Y-127005000D01*
G75*
G02*
X114405000Y-126832500I0J172500D01*
G01*
X114405000Y-126487500D01*
G75*
G02*
X114577500Y-126315000I172500J0D01*
G01*
G37*
G36*
G01*
X114577500Y-125345000D02*
X114972500Y-125345000D01*
G75*
G02*
X115145000Y-125517500I0J-172500D01*
G01*
X115145000Y-125862500D01*
G75*
G02*
X114972500Y-126035000I-172500J0D01*
G01*
X114577500Y-126035000D01*
G75*
G02*
X114405000Y-125862500I0J172500D01*
G01*
X114405000Y-125517500D01*
G75*
G02*
X114577500Y-125345000I172500J0D01*
G01*
G37*
%TD*%
%TO.C,C2*%
G36*
G01*
X109910000Y-130802500D02*
X109910000Y-131197500D01*
G75*
G02*
X109737500Y-131370000I-172500J0D01*
G01*
X109392500Y-131370000D01*
G75*
G02*
X109220000Y-131197500I0J172500D01*
G01*
X109220000Y-130802500D01*
G75*
G02*
X109392500Y-130630000I172500J0D01*
G01*
X109737500Y-130630000D01*
G75*
G02*
X109910000Y-130802500I0J-172500D01*
G01*
G37*
G36*
G01*
X110880000Y-130802500D02*
X110880000Y-131197500D01*
G75*
G02*
X110707500Y-131370000I-172500J0D01*
G01*
X110362500Y-131370000D01*
G75*
G02*
X110190000Y-131197500I0J172500D01*
G01*
X110190000Y-130802500D01*
G75*
G02*
X110362500Y-130630000I172500J0D01*
G01*
X110707500Y-130630000D01*
G75*
G02*
X110880000Y-130802500I0J-172500D01*
G01*
G37*
%TD*%
%TO.C,C1*%
G36*
G01*
X110247500Y-126025000D02*
X109852500Y-126025000D01*
G75*
G02*
X109680000Y-125852500I0J172500D01*
G01*
X109680000Y-125507500D01*
G75*
G02*
X109852500Y-125335000I172500J0D01*
G01*
X110247500Y-125335000D01*
G75*
G02*
X110420000Y-125507500I0J-172500D01*
G01*
X110420000Y-125852500D01*
G75*
G02*
X110247500Y-126025000I-172500J0D01*
G01*
G37*
G36*
G01*
X110247500Y-126995000D02*
X109852500Y-126995000D01*
G75*
G02*
X109680000Y-126822500I0J172500D01*
G01*
X109680000Y-126477500D01*
G75*
G02*
X109852500Y-126305000I172500J0D01*
G01*
X110247500Y-126305000D01*
G75*
G02*
X110420000Y-126477500I0J-172500D01*
G01*
X110420000Y-126822500D01*
G75*
G02*
X110247500Y-126995000I-172500J0D01*
G01*
G37*
%TD*%
D20*
%TO.C,U1*%
X114800000Y-131925000D03*
X114300000Y-131925000D03*
X113800000Y-131925000D03*
X113300000Y-131925000D03*
D21*
X115300000Y-132275000D03*
X112800000Y-132275000D03*
X112800000Y-128475000D03*
X113300000Y-128475000D03*
X113800000Y-128475000D03*
X114300000Y-128475000D03*
X114800000Y-128475000D03*
X115300000Y-128475000D03*
D22*
X112150000Y-131625000D03*
X112150000Y-131125000D03*
X112150000Y-130625000D03*
X112150000Y-130125000D03*
X112150000Y-129625000D03*
X112150000Y-129125000D03*
X115950000Y-129125000D03*
X115950000Y-129625000D03*
X115950000Y-130125000D03*
X115950000Y-130625000D03*
X115950000Y-131125000D03*
X115950000Y-131625000D03*
%TD*%
%TO.C,R16*%
G36*
G01*
X113072500Y-126040000D02*
X112677500Y-126040000D01*
G75*
G02*
X112505000Y-125867500I0J172500D01*
G01*
X112505000Y-125522500D01*
G75*
G02*
X112677500Y-125350000I172500J0D01*
G01*
X113072500Y-125350000D01*
G75*
G02*
X113245000Y-125522500I0J-172500D01*
G01*
X113245000Y-125867500D01*
G75*
G02*
X113072500Y-126040000I-172500J0D01*
G01*
G37*
G36*
G01*
X113072500Y-127010000D02*
X112677500Y-127010000D01*
G75*
G02*
X112505000Y-126837500I0J172500D01*
G01*
X112505000Y-126492500D01*
G75*
G02*
X112677500Y-126320000I172500J0D01*
G01*
X113072500Y-126320000D01*
G75*
G02*
X113245000Y-126492500I0J-172500D01*
G01*
X113245000Y-126837500D01*
G75*
G02*
X113072500Y-127010000I-172500J0D01*
G01*
G37*
%TD*%
%TO.C,R15*%
G36*
G01*
X113627500Y-126320000D02*
X114022500Y-126320000D01*
G75*
G02*
X114195000Y-126492500I0J-172500D01*
G01*
X114195000Y-126837500D01*
G75*
G02*
X114022500Y-127010000I-172500J0D01*
G01*
X113627500Y-127010000D01*
G75*
G02*
X113455000Y-126837500I0J172500D01*
G01*
X113455000Y-126492500D01*
G75*
G02*
X113627500Y-126320000I172500J0D01*
G01*
G37*
G36*
G01*
X113627500Y-125350000D02*
X114022500Y-125350000D01*
G75*
G02*
X114195000Y-125522500I0J-172500D01*
G01*
X114195000Y-125867500D01*
G75*
G02*
X114022500Y-126040000I-172500J0D01*
G01*
X113627500Y-126040000D01*
G75*
G02*
X113455000Y-125867500I0J172500D01*
G01*
X113455000Y-125522500D01*
G75*
G02*
X113627500Y-125350000I172500J0D01*
G01*
G37*
%TD*%
%TO.C,R14*%
G36*
G01*
X111197500Y-126025000D02*
X110802500Y-126025000D01*
G75*
G02*
X110630000Y-125852500I0J172500D01*
G01*
X110630000Y-125507500D01*
G75*
G02*
X110802500Y-125335000I172500J0D01*
G01*
X111197500Y-125335000D01*
G75*
G02*
X111370000Y-125507500I0J-172500D01*
G01*
X111370000Y-125852500D01*
G75*
G02*
X111197500Y-126025000I-172500J0D01*
G01*
G37*
G36*
G01*
X111197500Y-126995000D02*
X110802500Y-126995000D01*
G75*
G02*
X110630000Y-126822500I0J172500D01*
G01*
X110630000Y-126477500D01*
G75*
G02*
X110802500Y-126305000I172500J0D01*
G01*
X111197500Y-126305000D01*
G75*
G02*
X111370000Y-126477500I0J-172500D01*
G01*
X111370000Y-126822500D01*
G75*
G02*
X111197500Y-126995000I-172500J0D01*
G01*
G37*
%TD*%
%TO.C,R13*%
G36*
G01*
X111752500Y-126315000D02*
X112147500Y-126315000D01*
G75*
G02*
X112320000Y-126487500I0J-172500D01*
G01*
X112320000Y-126832500D01*
G75*
G02*
X112147500Y-127005000I-172500J0D01*
G01*
X111752500Y-127005000D01*
G75*
G02*
X111580000Y-126832500I0J172500D01*
G01*
X111580000Y-126487500D01*
G75*
G02*
X111752500Y-126315000I172500J0D01*
G01*
G37*
G36*
G01*
X111752500Y-125345000D02*
X112147500Y-125345000D01*
G75*
G02*
X112320000Y-125517500I0J-172500D01*
G01*
X112320000Y-125862500D01*
G75*
G02*
X112147500Y-126035000I-172500J0D01*
G01*
X111752500Y-126035000D01*
G75*
G02*
X111580000Y-125862500I0J172500D01*
G01*
X111580000Y-125517500D01*
G75*
G02*
X111752500Y-125345000I172500J0D01*
G01*
G37*
%TD*%
%TO.C,R12*%
G36*
G01*
X109910000Y-128927500D02*
X109910000Y-129322500D01*
G75*
G02*
X109737500Y-129495000I-172500J0D01*
G01*
X109392500Y-129495000D01*
G75*
G02*
X109220000Y-129322500I0J172500D01*
G01*
X109220000Y-128927500D01*
G75*
G02*
X109392500Y-128755000I172500J0D01*
G01*
X109737500Y-128755000D01*
G75*
G02*
X109910000Y-128927500I0J-172500D01*
G01*
G37*
G36*
G01*
X110880000Y-128927500D02*
X110880000Y-129322500D01*
G75*
G02*
X110707500Y-129495000I-172500J0D01*
G01*
X110362500Y-129495000D01*
G75*
G02*
X110190000Y-129322500I0J172500D01*
G01*
X110190000Y-128927500D01*
G75*
G02*
X110362500Y-128755000I172500J0D01*
G01*
X110707500Y-128755000D01*
G75*
G02*
X110880000Y-128927500I0J-172500D01*
G01*
G37*
%TD*%
%TO.C,R11*%
G36*
G01*
X110190000Y-128372500D02*
X110190000Y-127977500D01*
G75*
G02*
X110362500Y-127805000I172500J0D01*
G01*
X110707500Y-127805000D01*
G75*
G02*
X110880000Y-127977500I0J-172500D01*
G01*
X110880000Y-128372500D01*
G75*
G02*
X110707500Y-128545000I-172500J0D01*
G01*
X110362500Y-128545000D01*
G75*
G02*
X110190000Y-128372500I0J172500D01*
G01*
G37*
G36*
G01*
X109220000Y-128372500D02*
X109220000Y-127977500D01*
G75*
G02*
X109392500Y-127805000I172500J0D01*
G01*
X109737500Y-127805000D01*
G75*
G02*
X109910000Y-127977500I0J-172500D01*
G01*
X109910000Y-128372500D01*
G75*
G02*
X109737500Y-128545000I-172500J0D01*
G01*
X109392500Y-128545000D01*
G75*
G02*
X109220000Y-128372500I0J172500D01*
G01*
G37*
%TD*%
%TO.C,R10*%
G36*
G01*
X109345000Y-132147500D02*
X109345000Y-131752500D01*
G75*
G02*
X109517500Y-131580000I172500J0D01*
G01*
X109862500Y-131580000D01*
G75*
G02*
X110035000Y-131752500I0J-172500D01*
G01*
X110035000Y-132147500D01*
G75*
G02*
X109862500Y-132320000I-172500J0D01*
G01*
X109517500Y-132320000D01*
G75*
G02*
X109345000Y-132147500I0J172500D01*
G01*
G37*
G36*
G01*
X110315000Y-132147500D02*
X110315000Y-131752500D01*
G75*
G02*
X110487500Y-131580000I172500J0D01*
G01*
X110832500Y-131580000D01*
G75*
G02*
X111005000Y-131752500I0J-172500D01*
G01*
X111005000Y-132147500D01*
G75*
G02*
X110832500Y-132320000I-172500J0D01*
G01*
X110487500Y-132320000D01*
G75*
G02*
X110315000Y-132147500I0J172500D01*
G01*
G37*
%TD*%
%TO.C,R9*%
G36*
G01*
X107622500Y-129485000D02*
X107227500Y-129485000D01*
G75*
G02*
X107055000Y-129312500I0J172500D01*
G01*
X107055000Y-128967500D01*
G75*
G02*
X107227500Y-128795000I172500J0D01*
G01*
X107622500Y-128795000D01*
G75*
G02*
X107795000Y-128967500I0J-172500D01*
G01*
X107795000Y-129312500D01*
G75*
G02*
X107622500Y-129485000I-172500J0D01*
G01*
G37*
G36*
G01*
X107622500Y-130455000D02*
X107227500Y-130455000D01*
G75*
G02*
X107055000Y-130282500I0J172500D01*
G01*
X107055000Y-129937500D01*
G75*
G02*
X107227500Y-129765000I172500J0D01*
G01*
X107622500Y-129765000D01*
G75*
G02*
X107795000Y-129937500I0J-172500D01*
G01*
X107795000Y-130282500D01*
G75*
G02*
X107622500Y-130455000I-172500J0D01*
G01*
G37*
%TD*%
%TO.C,R8*%
G36*
G01*
X106672500Y-129485000D02*
X106277500Y-129485000D01*
G75*
G02*
X106105000Y-129312500I0J172500D01*
G01*
X106105000Y-128967500D01*
G75*
G02*
X106277500Y-128795000I172500J0D01*
G01*
X106672500Y-128795000D01*
G75*
G02*
X106845000Y-128967500I0J-172500D01*
G01*
X106845000Y-129312500D01*
G75*
G02*
X106672500Y-129485000I-172500J0D01*
G01*
G37*
G36*
G01*
X106672500Y-130455000D02*
X106277500Y-130455000D01*
G75*
G02*
X106105000Y-130282500I0J172500D01*
G01*
X106105000Y-129937500D01*
G75*
G02*
X106277500Y-129765000I172500J0D01*
G01*
X106672500Y-129765000D01*
G75*
G02*
X106845000Y-129937500I0J-172500D01*
G01*
X106845000Y-130282500D01*
G75*
G02*
X106672500Y-130455000I-172500J0D01*
G01*
G37*
%TD*%
%TO.C,R7*%
G36*
G01*
X105722500Y-129485000D02*
X105327500Y-129485000D01*
G75*
G02*
X105155000Y-129312500I0J172500D01*
G01*
X105155000Y-128967500D01*
G75*
G02*
X105327500Y-128795000I172500J0D01*
G01*
X105722500Y-128795000D01*
G75*
G02*
X105895000Y-128967500I0J-172500D01*
G01*
X105895000Y-129312500D01*
G75*
G02*
X105722500Y-129485000I-172500J0D01*
G01*
G37*
G36*
G01*
X105722500Y-130455000D02*
X105327500Y-130455000D01*
G75*
G02*
X105155000Y-130282500I0J172500D01*
G01*
X105155000Y-129937500D01*
G75*
G02*
X105327500Y-129765000I172500J0D01*
G01*
X105722500Y-129765000D01*
G75*
G02*
X105895000Y-129937500I0J-172500D01*
G01*
X105895000Y-130282500D01*
G75*
G02*
X105722500Y-130455000I-172500J0D01*
G01*
G37*
%TD*%
%TO.C,R6*%
G36*
G01*
X116847500Y-125685000D02*
X116452500Y-125685000D01*
G75*
G02*
X116280000Y-125512500I0J172500D01*
G01*
X116280000Y-125167500D01*
G75*
G02*
X116452500Y-124995000I172500J0D01*
G01*
X116847500Y-124995000D01*
G75*
G02*
X117020000Y-125167500I0J-172500D01*
G01*
X117020000Y-125512500D01*
G75*
G02*
X116847500Y-125685000I-172500J0D01*
G01*
G37*
G36*
G01*
X116847500Y-126655000D02*
X116452500Y-126655000D01*
G75*
G02*
X116280000Y-126482500I0J172500D01*
G01*
X116280000Y-126137500D01*
G75*
G02*
X116452500Y-125965000I172500J0D01*
G01*
X116847500Y-125965000D01*
G75*
G02*
X117020000Y-126137500I0J-172500D01*
G01*
X117020000Y-126482500D01*
G75*
G02*
X116847500Y-126655000I-172500J0D01*
G01*
G37*
%TD*%
%TO.C,R5*%
G36*
G01*
X115507500Y-125965000D02*
X115902500Y-125965000D01*
G75*
G02*
X116075000Y-126137500I0J-172500D01*
G01*
X116075000Y-126482500D01*
G75*
G02*
X115902500Y-126655000I-172500J0D01*
G01*
X115507500Y-126655000D01*
G75*
G02*
X115335000Y-126482500I0J172500D01*
G01*
X115335000Y-126137500D01*
G75*
G02*
X115507500Y-125965000I172500J0D01*
G01*
G37*
G36*
G01*
X115507500Y-124995000D02*
X115902500Y-124995000D01*
G75*
G02*
X116075000Y-125167500I0J-172500D01*
G01*
X116075000Y-125512500D01*
G75*
G02*
X115902500Y-125685000I-172500J0D01*
G01*
X115507500Y-125685000D01*
G75*
G02*
X115335000Y-125512500I0J172500D01*
G01*
X115335000Y-125167500D01*
G75*
G02*
X115507500Y-124995000I172500J0D01*
G01*
G37*
%TD*%
%TO.C,R4*%
G36*
G01*
X117330000Y-128422500D02*
X117330000Y-128027500D01*
G75*
G02*
X117502500Y-127855000I172500J0D01*
G01*
X117847500Y-127855000D01*
G75*
G02*
X118020000Y-128027500I0J-172500D01*
G01*
X118020000Y-128422500D01*
G75*
G02*
X117847500Y-128595000I-172500J0D01*
G01*
X117502500Y-128595000D01*
G75*
G02*
X117330000Y-128422500I0J172500D01*
G01*
G37*
G36*
G01*
X116360000Y-128422500D02*
X116360000Y-128027500D01*
G75*
G02*
X116532500Y-127855000I172500J0D01*
G01*
X116877500Y-127855000D01*
G75*
G02*
X117050000Y-128027500I0J-172500D01*
G01*
X117050000Y-128422500D01*
G75*
G02*
X116877500Y-128595000I-172500J0D01*
G01*
X116532500Y-128595000D01*
G75*
G02*
X116360000Y-128422500I0J172500D01*
G01*
G37*
%TD*%
%TO.C,R3*%
G36*
G01*
X117330000Y-127497500D02*
X117330000Y-127102500D01*
G75*
G02*
X117502500Y-126930000I172500J0D01*
G01*
X117847500Y-126930000D01*
G75*
G02*
X118020000Y-127102500I0J-172500D01*
G01*
X118020000Y-127497500D01*
G75*
G02*
X117847500Y-127670000I-172500J0D01*
G01*
X117502500Y-127670000D01*
G75*
G02*
X117330000Y-127497500I0J172500D01*
G01*
G37*
G36*
G01*
X116360000Y-127497500D02*
X116360000Y-127102500D01*
G75*
G02*
X116532500Y-126930000I172500J0D01*
G01*
X116877500Y-126930000D01*
G75*
G02*
X117050000Y-127102500I0J-172500D01*
G01*
X117050000Y-127497500D01*
G75*
G02*
X116877500Y-127670000I-172500J0D01*
G01*
X116532500Y-127670000D01*
G75*
G02*
X116360000Y-127497500I0J172500D01*
G01*
G37*
%TD*%
%TO.C,R2*%
G36*
G01*
X109910000Y-129877500D02*
X109910000Y-130272500D01*
G75*
G02*
X109737500Y-130445000I-172500J0D01*
G01*
X109392500Y-130445000D01*
G75*
G02*
X109220000Y-130272500I0J172500D01*
G01*
X109220000Y-129877500D01*
G75*
G02*
X109392500Y-129705000I172500J0D01*
G01*
X109737500Y-129705000D01*
G75*
G02*
X109910000Y-129877500I0J-172500D01*
G01*
G37*
G36*
G01*
X110880000Y-129877500D02*
X110880000Y-130272500D01*
G75*
G02*
X110707500Y-130445000I-172500J0D01*
G01*
X110362500Y-130445000D01*
G75*
G02*
X110190000Y-130272500I0J172500D01*
G01*
X110190000Y-129877500D01*
G75*
G02*
X110362500Y-129705000I172500J0D01*
G01*
X110707500Y-129705000D01*
G75*
G02*
X110880000Y-129877500I0J-172500D01*
G01*
G37*
%TD*%
D23*
%TO.C,L1*%
X124975000Y-134875000D03*
X118925000Y-134875000D03*
%TD*%
D16*
%TO.C,J1*%
X105900000Y-133860000D03*
X105900000Y-136400000D03*
%TD*%
%TO.C,C9*%
G36*
G01*
X115275000Y-136731250D02*
X115275000Y-135768750D01*
G75*
G02*
X115543750Y-135500000I268750J0D01*
G01*
X116081250Y-135500000D01*
G75*
G02*
X116350000Y-135768750I0J-268750D01*
G01*
X116350000Y-136731250D01*
G75*
G02*
X116081250Y-137000000I-268750J0D01*
G01*
X115543750Y-137000000D01*
G75*
G02*
X115275000Y-136731250I0J268750D01*
G01*
G37*
G36*
G01*
X113400000Y-136731250D02*
X113400000Y-135768750D01*
G75*
G02*
X113668750Y-135500000I268750J0D01*
G01*
X114206250Y-135500000D01*
G75*
G02*
X114475000Y-135768750I0J-268750D01*
G01*
X114475000Y-136731250D01*
G75*
G02*
X114206250Y-137000000I-268750J0D01*
G01*
X113668750Y-137000000D01*
G75*
G02*
X113400000Y-136731250I0J268750D01*
G01*
G37*
%TD*%
%TO.C,C8*%
G36*
G01*
X115275000Y-135206250D02*
X115275000Y-134243750D01*
G75*
G02*
X115543750Y-133975000I268750J0D01*
G01*
X116081250Y-133975000D01*
G75*
G02*
X116350000Y-134243750I0J-268750D01*
G01*
X116350000Y-135206250D01*
G75*
G02*
X116081250Y-135475000I-268750J0D01*
G01*
X115543750Y-135475000D01*
G75*
G02*
X115275000Y-135206250I0J268750D01*
G01*
G37*
G36*
G01*
X113400000Y-135206250D02*
X113400000Y-134243750D01*
G75*
G02*
X113668750Y-133975000I268750J0D01*
G01*
X114206250Y-133975000D01*
G75*
G02*
X114475000Y-134243750I0J-268750D01*
G01*
X114475000Y-135206250D01*
G75*
G02*
X114206250Y-135475000I-268750J0D01*
G01*
X113668750Y-135475000D01*
G75*
G02*
X113400000Y-135206250I0J268750D01*
G01*
G37*
%TD*%
%TO.C,C7*%
G36*
G01*
X116175000Y-139555000D02*
X116175000Y-137345000D01*
G75*
G02*
X116445000Y-137075000I270000J0D01*
G01*
X117255000Y-137075000D01*
G75*
G02*
X117525000Y-137345000I0J-270000D01*
G01*
X117525000Y-139555000D01*
G75*
G02*
X117255000Y-139825000I-270000J0D01*
G01*
X116445000Y-139825000D01*
G75*
G02*
X116175000Y-139555000I0J270000D01*
G01*
G37*
G36*
G01*
X113375000Y-139555000D02*
X113375000Y-137345000D01*
G75*
G02*
X113645000Y-137075000I270000J0D01*
G01*
X114455000Y-137075000D01*
G75*
G02*
X114725000Y-137345000I0J-270000D01*
G01*
X114725000Y-139555000D01*
G75*
G02*
X114455000Y-139825000I-270000J0D01*
G01*
X113645000Y-139825000D01*
G75*
G02*
X113375000Y-139555000I0J270000D01*
G01*
G37*
%TD*%
%TO.C,C6*%
G36*
G01*
X111768750Y-135050000D02*
X112731250Y-135050000D01*
G75*
G02*
X113000000Y-135318750I0J-268750D01*
G01*
X113000000Y-135856250D01*
G75*
G02*
X112731250Y-136125000I-268750J0D01*
G01*
X111768750Y-136125000D01*
G75*
G02*
X111500000Y-135856250I0J268750D01*
G01*
X111500000Y-135318750D01*
G75*
G02*
X111768750Y-135050000I268750J0D01*
G01*
G37*
G36*
G01*
X111768750Y-133175000D02*
X112731250Y-133175000D01*
G75*
G02*
X113000000Y-133443750I0J-268750D01*
G01*
X113000000Y-133981250D01*
G75*
G02*
X112731250Y-134250000I-268750J0D01*
G01*
X111768750Y-134250000D01*
G75*
G02*
X111500000Y-133981250I0J268750D01*
G01*
X111500000Y-133443750D01*
G75*
G02*
X111768750Y-133175000I268750J0D01*
G01*
G37*
%TD*%
%TO.C,C5*%
G36*
G01*
X110218750Y-135050000D02*
X111181250Y-135050000D01*
G75*
G02*
X111450000Y-135318750I0J-268750D01*
G01*
X111450000Y-135856250D01*
G75*
G02*
X111181250Y-136125000I-268750J0D01*
G01*
X110218750Y-136125000D01*
G75*
G02*
X109950000Y-135856250I0J268750D01*
G01*
X109950000Y-135318750D01*
G75*
G02*
X110218750Y-135050000I268750J0D01*
G01*
G37*
G36*
G01*
X110218750Y-133175000D02*
X111181250Y-133175000D01*
G75*
G02*
X111450000Y-133443750I0J-268750D01*
G01*
X111450000Y-133981250D01*
G75*
G02*
X111181250Y-134250000I-268750J0D01*
G01*
X110218750Y-134250000D01*
G75*
G02*
X109950000Y-133981250I0J268750D01*
G01*
X109950000Y-133443750D01*
G75*
G02*
X110218750Y-133175000I268750J0D01*
G01*
G37*
%TD*%
%TO.C,C4*%
G36*
G01*
X107395000Y-135975000D02*
X109605000Y-135975000D01*
G75*
G02*
X109875000Y-136245000I0J-270000D01*
G01*
X109875000Y-137055000D01*
G75*
G02*
X109605000Y-137325000I-270000J0D01*
G01*
X107395000Y-137325000D01*
G75*
G02*
X107125000Y-137055000I0J270000D01*
G01*
X107125000Y-136245000D01*
G75*
G02*
X107395000Y-135975000I270000J0D01*
G01*
G37*
G36*
G01*
X107395000Y-133175000D02*
X109605000Y-133175000D01*
G75*
G02*
X109875000Y-133445000I0J-270000D01*
G01*
X109875000Y-134255000D01*
G75*
G02*
X109605000Y-134525000I-270000J0D01*
G01*
X107395000Y-134525000D01*
G75*
G02*
X107125000Y-134255000I0J270000D01*
G01*
X107125000Y-133445000D01*
G75*
G02*
X107395000Y-133175000I270000J0D01*
G01*
G37*
%TD*%
%TO.C,C3*%
G36*
G01*
X122600000Y-125393750D02*
X122600000Y-126356250D01*
G75*
G02*
X122331250Y-126625000I-268750J0D01*
G01*
X121793750Y-126625000D01*
G75*
G02*
X121525000Y-126356250I0J268750D01*
G01*
X121525000Y-125393750D01*
G75*
G02*
X121793750Y-125125000I268750J0D01*
G01*
X122331250Y-125125000D01*
G75*
G02*
X122600000Y-125393750I0J-268750D01*
G01*
G37*
G36*
G01*
X124475000Y-125393750D02*
X124475000Y-126356250D01*
G75*
G02*
X124206250Y-126625000I-268750J0D01*
G01*
X123668750Y-126625000D01*
G75*
G02*
X123400000Y-126356250I0J268750D01*
G01*
X123400000Y-125393750D01*
G75*
G02*
X123668750Y-125125000I268750J0D01*
G01*
X124206250Y-125125000D01*
G75*
G02*
X124475000Y-125393750I0J-268750D01*
G01*
G37*
%TD*%
M02*
