%TF.GenerationSoftware,KiCad,Pcbnew,(5.1.6)-1*%
%TF.CreationDate,2020-10-01T20:51:16-05:00*%
%TF.ProjectId,USB_MP2637,5553425f-4d50-4323-9633-372e6b696361,rev?*%
%TF.SameCoordinates,Original*%
%TF.FileFunction,Copper,L1,Top*%
%TF.FilePolarity,Positive*%
%FSLAX46Y46*%
G04 Gerber Fmt 4.6, Leading zero omitted, Abs format (unit mm)*
G04 Created by KiCad (PCBNEW (5.1.6)-1) date 2020-10-01 20:51:16*
%MOMM*%
%LPD*%
G01*
G04 APERTURE LIST*
%TA.AperFunction,SMDPad,CuDef*%
%ADD10R,1.900000X1.000000*%
%TD*%
%TA.AperFunction,SMDPad,CuDef*%
%ADD11R,1.900000X1.800000*%
%TD*%
%TA.AperFunction,SMDPad,CuDef*%
%ADD12R,1.300000X1.650000*%
%TD*%
%TA.AperFunction,SMDPad,CuDef*%
%ADD13R,1.550000X1.425000*%
%TD*%
%TA.AperFunction,SMDPad,CuDef*%
%ADD14R,1.380000X0.450000*%
%TD*%
%TA.AperFunction,ComponentPad*%
%ADD15C,3.800000*%
%TD*%
%TA.AperFunction,ComponentPad*%
%ADD16R,1.700000X1.700000*%
%TD*%
%TA.AperFunction,ComponentPad*%
%ADD17C,1.600000*%
%TD*%
%TA.AperFunction,ComponentPad*%
%ADD18R,1.600000X1.500000*%
%TD*%
%TA.AperFunction,ComponentPad*%
%ADD19C,3.000000*%
%TD*%
%TA.AperFunction,SMDPad,CuDef*%
%ADD20R,0.250000X1.500000*%
%TD*%
%TA.AperFunction,SMDPad,CuDef*%
%ADD21R,0.250000X0.800000*%
%TD*%
%TA.AperFunction,SMDPad,CuDef*%
%ADD22R,0.800000X0.250000*%
%TD*%
%TA.AperFunction,SMDPad,CuDef*%
%ADD23R,2.350000X3.400000*%
%TD*%
%TA.AperFunction,ViaPad*%
%ADD24C,0.700000*%
%TD*%
%TA.AperFunction,Conductor*%
%ADD25C,0.250000*%
%TD*%
%TA.AperFunction,Conductor*%
%ADD26C,0.200000*%
%TD*%
G04 APERTURE END LIST*
D10*
%TO.P,J4,6*%
%TO.N,GND*%
X101365000Y-136350000D03*
D11*
X101365000Y-133650000D03*
D12*
X101365000Y-138175000D03*
X101365000Y-131425000D03*
D13*
X103940000Y-137287500D03*
X103940000Y-132312500D03*
D14*
%TO.P,J4,5*%
X104025000Y-136100000D03*
%TO.P,J4,4*%
%TO.N,Net-(J4-Pad4)*%
X104025000Y-135450000D03*
%TO.P,J4,3*%
%TO.N,Net-(J4-Pad3)*%
X104025000Y-134800000D03*
%TO.P,J4,2*%
%TO.N,Net-(J4-Pad2)*%
X104025000Y-134150000D03*
%TO.P,J4,1*%
%TO.N,VDC*%
X104025000Y-133500000D03*
%TD*%
%TO.P,D3,2*%
%TO.N,Net-(D3-Pad2)*%
%TA.AperFunction,SMDPad,CuDef*%
G36*
G01*
X107343750Y-127525000D02*
X107856250Y-127525000D01*
G75*
G02*
X108075000Y-127743750I0J-218750D01*
G01*
X108075000Y-128181250D01*
G75*
G02*
X107856250Y-128400000I-218750J0D01*
G01*
X107343750Y-128400000D01*
G75*
G02*
X107125000Y-128181250I0J218750D01*
G01*
X107125000Y-127743750D01*
G75*
G02*
X107343750Y-127525000I218750J0D01*
G01*
G37*
%TD.AperFunction*%
%TO.P,D3,1*%
%TO.N,Net-(D3-Pad1)*%
%TA.AperFunction,SMDPad,CuDef*%
G36*
G01*
X107343750Y-125950000D02*
X107856250Y-125950000D01*
G75*
G02*
X108075000Y-126168750I0J-218750D01*
G01*
X108075000Y-126606250D01*
G75*
G02*
X107856250Y-126825000I-218750J0D01*
G01*
X107343750Y-126825000D01*
G75*
G02*
X107125000Y-126606250I0J218750D01*
G01*
X107125000Y-126168750D01*
G75*
G02*
X107343750Y-125950000I218750J0D01*
G01*
G37*
%TD.AperFunction*%
%TD*%
%TO.P,D2,2*%
%TO.N,Net-(D2-Pad2)*%
%TA.AperFunction,SMDPad,CuDef*%
G36*
G01*
X105893750Y-127550000D02*
X106406250Y-127550000D01*
G75*
G02*
X106625000Y-127768750I0J-218750D01*
G01*
X106625000Y-128206250D01*
G75*
G02*
X106406250Y-128425000I-218750J0D01*
G01*
X105893750Y-128425000D01*
G75*
G02*
X105675000Y-128206250I0J218750D01*
G01*
X105675000Y-127768750D01*
G75*
G02*
X105893750Y-127550000I218750J0D01*
G01*
G37*
%TD.AperFunction*%
%TO.P,D2,1*%
%TO.N,Net-(D2-Pad1)*%
%TA.AperFunction,SMDPad,CuDef*%
G36*
G01*
X105893750Y-125975000D02*
X106406250Y-125975000D01*
G75*
G02*
X106625000Y-126193750I0J-218750D01*
G01*
X106625000Y-126631250D01*
G75*
G02*
X106406250Y-126850000I-218750J0D01*
G01*
X105893750Y-126850000D01*
G75*
G02*
X105675000Y-126631250I0J218750D01*
G01*
X105675000Y-126193750D01*
G75*
G02*
X105893750Y-125975000I218750J0D01*
G01*
G37*
%TD.AperFunction*%
%TD*%
%TO.P,D1,2*%
%TO.N,Net-(D1-Pad2)*%
%TA.AperFunction,SMDPad,CuDef*%
G36*
G01*
X104443750Y-127537500D02*
X104956250Y-127537500D01*
G75*
G02*
X105175000Y-127756250I0J-218750D01*
G01*
X105175000Y-128193750D01*
G75*
G02*
X104956250Y-128412500I-218750J0D01*
G01*
X104443750Y-128412500D01*
G75*
G02*
X104225000Y-128193750I0J218750D01*
G01*
X104225000Y-127756250D01*
G75*
G02*
X104443750Y-127537500I218750J0D01*
G01*
G37*
%TD.AperFunction*%
%TO.P,D1,1*%
%TO.N,Net-(D1-Pad1)*%
%TA.AperFunction,SMDPad,CuDef*%
G36*
G01*
X104443750Y-125962500D02*
X104956250Y-125962500D01*
G75*
G02*
X105175000Y-126181250I0J-218750D01*
G01*
X105175000Y-126618750D01*
G75*
G02*
X104956250Y-126837500I-218750J0D01*
G01*
X104443750Y-126837500D01*
G75*
G02*
X104225000Y-126618750I0J218750D01*
G01*
X104225000Y-126181250D01*
G75*
G02*
X104443750Y-125962500I218750J0D01*
G01*
G37*
%TD.AperFunction*%
%TD*%
D15*
%TO.P,H4,1*%
%TO.N,GND*%
X127750000Y-122250000D03*
%TD*%
%TO.P,H3,1*%
%TO.N,GND*%
X127750000Y-147750000D03*
%TD*%
%TO.P,H2,1*%
%TO.N,GND*%
X102250000Y-147750000D03*
%TD*%
%TO.P,H1,1*%
%TO.N,GND*%
X102250000Y-122250000D03*
%TD*%
D16*
%TO.P,J2,2*%
%TO.N,+BATT*%
X124140000Y-123350000D03*
%TO.P,J2,1*%
%TO.N,GND*%
X121600000Y-123350000D03*
%TD*%
%TO.P,R1,2*%
%TO.N,Net-(L1-Pad2)*%
%TA.AperFunction,SMDPad,CuDef*%
G36*
G01*
X123825000Y-129775000D02*
X125975000Y-129775000D01*
G75*
G02*
X126225000Y-130025000I0J-250000D01*
G01*
X126225000Y-130775000D01*
G75*
G02*
X125975000Y-131025000I-250000J0D01*
G01*
X123825000Y-131025000D01*
G75*
G02*
X123575000Y-130775000I0J250000D01*
G01*
X123575000Y-130025000D01*
G75*
G02*
X123825000Y-129775000I250000J0D01*
G01*
G37*
%TD.AperFunction*%
%TO.P,R1,1*%
%TO.N,+BATT*%
%TA.AperFunction,SMDPad,CuDef*%
G36*
G01*
X123825000Y-126975000D02*
X125975000Y-126975000D01*
G75*
G02*
X126225000Y-127225000I0J-250000D01*
G01*
X126225000Y-127975000D01*
G75*
G02*
X125975000Y-128225000I-250000J0D01*
G01*
X123825000Y-128225000D01*
G75*
G02*
X123575000Y-127975000I0J250000D01*
G01*
X123575000Y-127225000D01*
G75*
G02*
X123825000Y-126975000I250000J0D01*
G01*
G37*
%TD.AperFunction*%
%TD*%
D17*
%TO.P,J3,4*%
%TO.N,GND*%
X119950000Y-143900000D03*
%TO.P,J3,3*%
%TO.N,Net-(J3-Pad3)*%
X117450000Y-143900000D03*
%TO.P,J3,2*%
%TO.N,Net-(J3-Pad2)*%
X115450000Y-143900000D03*
D18*
%TO.P,J3,1*%
%TO.N,+5V*%
X112950000Y-143900000D03*
D19*
%TO.P,J3,5*%
%TO.N,GND*%
X123020000Y-146610000D03*
X109880000Y-146610000D03*
%TD*%
%TO.P,C10,2*%
%TO.N,Net-(C10-Pad2)*%
%TA.AperFunction,SMDPad,CuDef*%
G36*
G01*
X114602500Y-126365000D02*
X114947500Y-126365000D01*
G75*
G02*
X115095000Y-126512500I0J-147500D01*
G01*
X115095000Y-126807500D01*
G75*
G02*
X114947500Y-126955000I-147500J0D01*
G01*
X114602500Y-126955000D01*
G75*
G02*
X114455000Y-126807500I0J147500D01*
G01*
X114455000Y-126512500D01*
G75*
G02*
X114602500Y-126365000I147500J0D01*
G01*
G37*
%TD.AperFunction*%
%TO.P,C10,1*%
%TO.N,+5V*%
%TA.AperFunction,SMDPad,CuDef*%
G36*
G01*
X114602500Y-125395000D02*
X114947500Y-125395000D01*
G75*
G02*
X115095000Y-125542500I0J-147500D01*
G01*
X115095000Y-125837500D01*
G75*
G02*
X114947500Y-125985000I-147500J0D01*
G01*
X114602500Y-125985000D01*
G75*
G02*
X114455000Y-125837500I0J147500D01*
G01*
X114455000Y-125542500D01*
G75*
G02*
X114602500Y-125395000I147500J0D01*
G01*
G37*
%TD.AperFunction*%
%TD*%
%TO.P,C2,2*%
%TO.N,GND*%
%TA.AperFunction,SMDPad,CuDef*%
G36*
G01*
X109860000Y-130827500D02*
X109860000Y-131172500D01*
G75*
G02*
X109712500Y-131320000I-147500J0D01*
G01*
X109417500Y-131320000D01*
G75*
G02*
X109270000Y-131172500I0J147500D01*
G01*
X109270000Y-130827500D01*
G75*
G02*
X109417500Y-130680000I147500J0D01*
G01*
X109712500Y-130680000D01*
G75*
G02*
X109860000Y-130827500I0J-147500D01*
G01*
G37*
%TD.AperFunction*%
%TO.P,C2,1*%
%TO.N,VCC*%
%TA.AperFunction,SMDPad,CuDef*%
G36*
G01*
X110830000Y-130827500D02*
X110830000Y-131172500D01*
G75*
G02*
X110682500Y-131320000I-147500J0D01*
G01*
X110387500Y-131320000D01*
G75*
G02*
X110240000Y-131172500I0J147500D01*
G01*
X110240000Y-130827500D01*
G75*
G02*
X110387500Y-130680000I147500J0D01*
G01*
X110682500Y-130680000D01*
G75*
G02*
X110830000Y-130827500I0J-147500D01*
G01*
G37*
%TD.AperFunction*%
%TD*%
%TO.P,C1,2*%
%TO.N,GND*%
%TA.AperFunction,SMDPad,CuDef*%
G36*
G01*
X110222500Y-125975000D02*
X109877500Y-125975000D01*
G75*
G02*
X109730000Y-125827500I0J147500D01*
G01*
X109730000Y-125532500D01*
G75*
G02*
X109877500Y-125385000I147500J0D01*
G01*
X110222500Y-125385000D01*
G75*
G02*
X110370000Y-125532500I0J-147500D01*
G01*
X110370000Y-125827500D01*
G75*
G02*
X110222500Y-125975000I-147500J0D01*
G01*
G37*
%TD.AperFunction*%
%TO.P,C1,1*%
%TO.N,Net-(C1-Pad1)*%
%TA.AperFunction,SMDPad,CuDef*%
G36*
G01*
X110222500Y-126945000D02*
X109877500Y-126945000D01*
G75*
G02*
X109730000Y-126797500I0J147500D01*
G01*
X109730000Y-126502500D01*
G75*
G02*
X109877500Y-126355000I147500J0D01*
G01*
X110222500Y-126355000D01*
G75*
G02*
X110370000Y-126502500I0J-147500D01*
G01*
X110370000Y-126797500D01*
G75*
G02*
X110222500Y-126945000I-147500J0D01*
G01*
G37*
%TD.AperFunction*%
%TD*%
D20*
%TO.P,U1,23*%
%TO.N,GND*%
X114800000Y-131925000D03*
%TO.P,U1,22*%
%TO.N,Net-(L1-Pad1)*%
X114300000Y-131925000D03*
%TO.P,U1,21*%
%TO.N,+5V*%
X113800000Y-131925000D03*
%TO.P,U1,20*%
%TO.N,VDC*%
X113300000Y-131925000D03*
D21*
%TO.P,U1,24*%
%TO.N,GND*%
X115300000Y-132275000D03*
%TO.P,U1,19*%
%TO.N,Net-(R10-Pad2)*%
X112800000Y-132275000D03*
%TO.P,U1,12*%
%TO.N,Net-(R13-Pad2)*%
X112800000Y-128475000D03*
%TO.P,U1,11*%
%TO.N,Net-(D2-Pad1)*%
X113300000Y-128475000D03*
%TO.P,U1,10*%
%TO.N,Net-(C10-Pad2)*%
X113800000Y-128475000D03*
%TO.P,U1,9*%
%TO.N,NTC*%
X114300000Y-128475000D03*
%TO.P,U1,8*%
%TO.N,Net-(R3-Pad1)*%
X114800000Y-128475000D03*
%TO.P,U1,7*%
%TO.N,Net-(R4-Pad1)*%
X115300000Y-128475000D03*
D22*
%TO.P,U1,18*%
%TO.N,Net-(R10-Pad2)*%
X112150000Y-131625000D03*
%TO.P,U1,17*%
%TO.N,BType*%
X112150000Y-131125000D03*
%TO.P,U1,16*%
%TO.N,VCC*%
X112150000Y-130625000D03*
%TO.P,U1,15*%
%TO.N,Net-(R2-Pad1)*%
X112150000Y-130125000D03*
%TO.P,U1,14*%
%TO.N,Net-(R11-Pad2)*%
X112150000Y-129625000D03*
%TO.P,U1,13*%
%TO.N,Net-(C1-Pad1)*%
X112150000Y-129125000D03*
%TO.P,U1,6*%
%TO.N,GND*%
X115950000Y-129125000D03*
%TO.P,U1,5*%
%TO.N,+BATT*%
X115950000Y-129625000D03*
%TO.P,U1,4*%
%TO.N,Net-(L1-Pad2)*%
X115950000Y-130125000D03*
%TO.P,U1,3*%
%TO.N,Net-(D1-Pad1)*%
X115950000Y-130625000D03*
%TO.P,U1,2*%
%TO.N,Net-(D3-Pad1)*%
X115950000Y-131125000D03*
%TO.P,U1,1*%
%TO.N,GND*%
X115950000Y-131625000D03*
%TD*%
%TO.P,R16,2*%
%TO.N,GND*%
%TA.AperFunction,SMDPad,CuDef*%
G36*
G01*
X113047500Y-125990000D02*
X112702500Y-125990000D01*
G75*
G02*
X112555000Y-125842500I0J147500D01*
G01*
X112555000Y-125547500D01*
G75*
G02*
X112702500Y-125400000I147500J0D01*
G01*
X113047500Y-125400000D01*
G75*
G02*
X113195000Y-125547500I0J-147500D01*
G01*
X113195000Y-125842500D01*
G75*
G02*
X113047500Y-125990000I-147500J0D01*
G01*
G37*
%TD.AperFunction*%
%TO.P,R16,1*%
%TO.N,Net-(C10-Pad2)*%
%TA.AperFunction,SMDPad,CuDef*%
G36*
G01*
X113047500Y-126960000D02*
X112702500Y-126960000D01*
G75*
G02*
X112555000Y-126812500I0J147500D01*
G01*
X112555000Y-126517500D01*
G75*
G02*
X112702500Y-126370000I147500J0D01*
G01*
X113047500Y-126370000D01*
G75*
G02*
X113195000Y-126517500I0J-147500D01*
G01*
X113195000Y-126812500D01*
G75*
G02*
X113047500Y-126960000I-147500J0D01*
G01*
G37*
%TD.AperFunction*%
%TD*%
%TO.P,R15,2*%
%TO.N,Net-(C10-Pad2)*%
%TA.AperFunction,SMDPad,CuDef*%
G36*
G01*
X113652500Y-126370000D02*
X113997500Y-126370000D01*
G75*
G02*
X114145000Y-126517500I0J-147500D01*
G01*
X114145000Y-126812500D01*
G75*
G02*
X113997500Y-126960000I-147500J0D01*
G01*
X113652500Y-126960000D01*
G75*
G02*
X113505000Y-126812500I0J147500D01*
G01*
X113505000Y-126517500D01*
G75*
G02*
X113652500Y-126370000I147500J0D01*
G01*
G37*
%TD.AperFunction*%
%TO.P,R15,1*%
%TO.N,+5V*%
%TA.AperFunction,SMDPad,CuDef*%
G36*
G01*
X113652500Y-125400000D02*
X113997500Y-125400000D01*
G75*
G02*
X114145000Y-125547500I0J-147500D01*
G01*
X114145000Y-125842500D01*
G75*
G02*
X113997500Y-125990000I-147500J0D01*
G01*
X113652500Y-125990000D01*
G75*
G02*
X113505000Y-125842500I0J147500D01*
G01*
X113505000Y-125547500D01*
G75*
G02*
X113652500Y-125400000I147500J0D01*
G01*
G37*
%TD.AperFunction*%
%TD*%
%TO.P,R14,2*%
%TO.N,GND*%
%TA.AperFunction,SMDPad,CuDef*%
G36*
G01*
X111172500Y-125975000D02*
X110827500Y-125975000D01*
G75*
G02*
X110680000Y-125827500I0J147500D01*
G01*
X110680000Y-125532500D01*
G75*
G02*
X110827500Y-125385000I147500J0D01*
G01*
X111172500Y-125385000D01*
G75*
G02*
X111320000Y-125532500I0J-147500D01*
G01*
X111320000Y-125827500D01*
G75*
G02*
X111172500Y-125975000I-147500J0D01*
G01*
G37*
%TD.AperFunction*%
%TO.P,R14,1*%
%TO.N,Net-(R13-Pad2)*%
%TA.AperFunction,SMDPad,CuDef*%
G36*
G01*
X111172500Y-126945000D02*
X110827500Y-126945000D01*
G75*
G02*
X110680000Y-126797500I0J147500D01*
G01*
X110680000Y-126502500D01*
G75*
G02*
X110827500Y-126355000I147500J0D01*
G01*
X111172500Y-126355000D01*
G75*
G02*
X111320000Y-126502500I0J-147500D01*
G01*
X111320000Y-126797500D01*
G75*
G02*
X111172500Y-126945000I-147500J0D01*
G01*
G37*
%TD.AperFunction*%
%TD*%
%TO.P,R13,2*%
%TO.N,Net-(R13-Pad2)*%
%TA.AperFunction,SMDPad,CuDef*%
G36*
G01*
X111777500Y-126365000D02*
X112122500Y-126365000D01*
G75*
G02*
X112270000Y-126512500I0J-147500D01*
G01*
X112270000Y-126807500D01*
G75*
G02*
X112122500Y-126955000I-147500J0D01*
G01*
X111777500Y-126955000D01*
G75*
G02*
X111630000Y-126807500I0J147500D01*
G01*
X111630000Y-126512500D01*
G75*
G02*
X111777500Y-126365000I147500J0D01*
G01*
G37*
%TD.AperFunction*%
%TO.P,R13,1*%
%TO.N,VDC*%
%TA.AperFunction,SMDPad,CuDef*%
G36*
G01*
X111777500Y-125395000D02*
X112122500Y-125395000D01*
G75*
G02*
X112270000Y-125542500I0J-147500D01*
G01*
X112270000Y-125837500D01*
G75*
G02*
X112122500Y-125985000I-147500J0D01*
G01*
X111777500Y-125985000D01*
G75*
G02*
X111630000Y-125837500I0J147500D01*
G01*
X111630000Y-125542500D01*
G75*
G02*
X111777500Y-125395000I147500J0D01*
G01*
G37*
%TD.AperFunction*%
%TD*%
%TO.P,R12,2*%
%TO.N,GND*%
%TA.AperFunction,SMDPad,CuDef*%
G36*
G01*
X109860000Y-128952500D02*
X109860000Y-129297500D01*
G75*
G02*
X109712500Y-129445000I-147500J0D01*
G01*
X109417500Y-129445000D01*
G75*
G02*
X109270000Y-129297500I0J147500D01*
G01*
X109270000Y-128952500D01*
G75*
G02*
X109417500Y-128805000I147500J0D01*
G01*
X109712500Y-128805000D01*
G75*
G02*
X109860000Y-128952500I0J-147500D01*
G01*
G37*
%TD.AperFunction*%
%TO.P,R12,1*%
%TO.N,Net-(R11-Pad2)*%
%TA.AperFunction,SMDPad,CuDef*%
G36*
G01*
X110830000Y-128952500D02*
X110830000Y-129297500D01*
G75*
G02*
X110682500Y-129445000I-147500J0D01*
G01*
X110387500Y-129445000D01*
G75*
G02*
X110240000Y-129297500I0J147500D01*
G01*
X110240000Y-128952500D01*
G75*
G02*
X110387500Y-128805000I147500J0D01*
G01*
X110682500Y-128805000D01*
G75*
G02*
X110830000Y-128952500I0J-147500D01*
G01*
G37*
%TD.AperFunction*%
%TD*%
%TO.P,R11,2*%
%TO.N,Net-(R11-Pad2)*%
%TA.AperFunction,SMDPad,CuDef*%
G36*
G01*
X110240000Y-128347500D02*
X110240000Y-128002500D01*
G75*
G02*
X110387500Y-127855000I147500J0D01*
G01*
X110682500Y-127855000D01*
G75*
G02*
X110830000Y-128002500I0J-147500D01*
G01*
X110830000Y-128347500D01*
G75*
G02*
X110682500Y-128495000I-147500J0D01*
G01*
X110387500Y-128495000D01*
G75*
G02*
X110240000Y-128347500I0J147500D01*
G01*
G37*
%TD.AperFunction*%
%TO.P,R11,1*%
%TO.N,VDC*%
%TA.AperFunction,SMDPad,CuDef*%
G36*
G01*
X109270000Y-128347500D02*
X109270000Y-128002500D01*
G75*
G02*
X109417500Y-127855000I147500J0D01*
G01*
X109712500Y-127855000D01*
G75*
G02*
X109860000Y-128002500I0J-147500D01*
G01*
X109860000Y-128347500D01*
G75*
G02*
X109712500Y-128495000I-147500J0D01*
G01*
X109417500Y-128495000D01*
G75*
G02*
X109270000Y-128347500I0J147500D01*
G01*
G37*
%TD.AperFunction*%
%TD*%
%TO.P,R10,1*%
%TO.N,VCC*%
%TA.AperFunction,SMDPad,CuDef*%
G36*
G01*
X109395000Y-132122500D02*
X109395000Y-131777500D01*
G75*
G02*
X109542500Y-131630000I147500J0D01*
G01*
X109837500Y-131630000D01*
G75*
G02*
X109985000Y-131777500I0J-147500D01*
G01*
X109985000Y-132122500D01*
G75*
G02*
X109837500Y-132270000I-147500J0D01*
G01*
X109542500Y-132270000D01*
G75*
G02*
X109395000Y-132122500I0J147500D01*
G01*
G37*
%TD.AperFunction*%
%TO.P,R10,2*%
%TO.N,Net-(R10-Pad2)*%
%TA.AperFunction,SMDPad,CuDef*%
G36*
G01*
X110365000Y-132122500D02*
X110365000Y-131777500D01*
G75*
G02*
X110512500Y-131630000I147500J0D01*
G01*
X110807500Y-131630000D01*
G75*
G02*
X110955000Y-131777500I0J-147500D01*
G01*
X110955000Y-132122500D01*
G75*
G02*
X110807500Y-132270000I-147500J0D01*
G01*
X110512500Y-132270000D01*
G75*
G02*
X110365000Y-132122500I0J147500D01*
G01*
G37*
%TD.AperFunction*%
%TD*%
%TO.P,R9,2*%
%TO.N,Net-(D3-Pad2)*%
%TA.AperFunction,SMDPad,CuDef*%
G36*
G01*
X107597500Y-129435000D02*
X107252500Y-129435000D01*
G75*
G02*
X107105000Y-129287500I0J147500D01*
G01*
X107105000Y-128992500D01*
G75*
G02*
X107252500Y-128845000I147500J0D01*
G01*
X107597500Y-128845000D01*
G75*
G02*
X107745000Y-128992500I0J-147500D01*
G01*
X107745000Y-129287500D01*
G75*
G02*
X107597500Y-129435000I-147500J0D01*
G01*
G37*
%TD.AperFunction*%
%TO.P,R9,1*%
%TO.N,VCC*%
%TA.AperFunction,SMDPad,CuDef*%
G36*
G01*
X107597500Y-130405000D02*
X107252500Y-130405000D01*
G75*
G02*
X107105000Y-130257500I0J147500D01*
G01*
X107105000Y-129962500D01*
G75*
G02*
X107252500Y-129815000I147500J0D01*
G01*
X107597500Y-129815000D01*
G75*
G02*
X107745000Y-129962500I0J-147500D01*
G01*
X107745000Y-130257500D01*
G75*
G02*
X107597500Y-130405000I-147500J0D01*
G01*
G37*
%TD.AperFunction*%
%TD*%
%TO.P,R8,2*%
%TO.N,Net-(D2-Pad2)*%
%TA.AperFunction,SMDPad,CuDef*%
G36*
G01*
X106647500Y-129435000D02*
X106302500Y-129435000D01*
G75*
G02*
X106155000Y-129287500I0J147500D01*
G01*
X106155000Y-128992500D01*
G75*
G02*
X106302500Y-128845000I147500J0D01*
G01*
X106647500Y-128845000D01*
G75*
G02*
X106795000Y-128992500I0J-147500D01*
G01*
X106795000Y-129287500D01*
G75*
G02*
X106647500Y-129435000I-147500J0D01*
G01*
G37*
%TD.AperFunction*%
%TO.P,R8,1*%
%TO.N,VCC*%
%TA.AperFunction,SMDPad,CuDef*%
G36*
G01*
X106647500Y-130405000D02*
X106302500Y-130405000D01*
G75*
G02*
X106155000Y-130257500I0J147500D01*
G01*
X106155000Y-129962500D01*
G75*
G02*
X106302500Y-129815000I147500J0D01*
G01*
X106647500Y-129815000D01*
G75*
G02*
X106795000Y-129962500I0J-147500D01*
G01*
X106795000Y-130257500D01*
G75*
G02*
X106647500Y-130405000I-147500J0D01*
G01*
G37*
%TD.AperFunction*%
%TD*%
%TO.P,R7,2*%
%TO.N,Net-(D1-Pad2)*%
%TA.AperFunction,SMDPad,CuDef*%
G36*
G01*
X105697500Y-129435000D02*
X105352500Y-129435000D01*
G75*
G02*
X105205000Y-129287500I0J147500D01*
G01*
X105205000Y-128992500D01*
G75*
G02*
X105352500Y-128845000I147500J0D01*
G01*
X105697500Y-128845000D01*
G75*
G02*
X105845000Y-128992500I0J-147500D01*
G01*
X105845000Y-129287500D01*
G75*
G02*
X105697500Y-129435000I-147500J0D01*
G01*
G37*
%TD.AperFunction*%
%TO.P,R7,1*%
%TO.N,VCC*%
%TA.AperFunction,SMDPad,CuDef*%
G36*
G01*
X105697500Y-130405000D02*
X105352500Y-130405000D01*
G75*
G02*
X105205000Y-130257500I0J147500D01*
G01*
X105205000Y-129962500D01*
G75*
G02*
X105352500Y-129815000I147500J0D01*
G01*
X105697500Y-129815000D01*
G75*
G02*
X105845000Y-129962500I0J-147500D01*
G01*
X105845000Y-130257500D01*
G75*
G02*
X105697500Y-130405000I-147500J0D01*
G01*
G37*
%TD.AperFunction*%
%TD*%
%TO.P,R6,2*%
%TO.N,GND*%
%TA.AperFunction,SMDPad,CuDef*%
G36*
G01*
X116822500Y-125635000D02*
X116477500Y-125635000D01*
G75*
G02*
X116330000Y-125487500I0J147500D01*
G01*
X116330000Y-125192500D01*
G75*
G02*
X116477500Y-125045000I147500J0D01*
G01*
X116822500Y-125045000D01*
G75*
G02*
X116970000Y-125192500I0J-147500D01*
G01*
X116970000Y-125487500D01*
G75*
G02*
X116822500Y-125635000I-147500J0D01*
G01*
G37*
%TD.AperFunction*%
%TO.P,R6,1*%
%TO.N,NTC*%
%TA.AperFunction,SMDPad,CuDef*%
G36*
G01*
X116822500Y-126605000D02*
X116477500Y-126605000D01*
G75*
G02*
X116330000Y-126457500I0J147500D01*
G01*
X116330000Y-126162500D01*
G75*
G02*
X116477500Y-126015000I147500J0D01*
G01*
X116822500Y-126015000D01*
G75*
G02*
X116970000Y-126162500I0J-147500D01*
G01*
X116970000Y-126457500D01*
G75*
G02*
X116822500Y-126605000I-147500J0D01*
G01*
G37*
%TD.AperFunction*%
%TD*%
%TO.P,R5,2*%
%TO.N,NTC*%
%TA.AperFunction,SMDPad,CuDef*%
G36*
G01*
X115532500Y-126015000D02*
X115877500Y-126015000D01*
G75*
G02*
X116025000Y-126162500I0J-147500D01*
G01*
X116025000Y-126457500D01*
G75*
G02*
X115877500Y-126605000I-147500J0D01*
G01*
X115532500Y-126605000D01*
G75*
G02*
X115385000Y-126457500I0J147500D01*
G01*
X115385000Y-126162500D01*
G75*
G02*
X115532500Y-126015000I147500J0D01*
G01*
G37*
%TD.AperFunction*%
%TO.P,R5,1*%
%TO.N,+5V*%
%TA.AperFunction,SMDPad,CuDef*%
G36*
G01*
X115532500Y-125045000D02*
X115877500Y-125045000D01*
G75*
G02*
X116025000Y-125192500I0J-147500D01*
G01*
X116025000Y-125487500D01*
G75*
G02*
X115877500Y-125635000I-147500J0D01*
G01*
X115532500Y-125635000D01*
G75*
G02*
X115385000Y-125487500I0J147500D01*
G01*
X115385000Y-125192500D01*
G75*
G02*
X115532500Y-125045000I147500J0D01*
G01*
G37*
%TD.AperFunction*%
%TD*%
%TO.P,R4,2*%
%TO.N,GND*%
%TA.AperFunction,SMDPad,CuDef*%
G36*
G01*
X117380000Y-128397500D02*
X117380000Y-128052500D01*
G75*
G02*
X117527500Y-127905000I147500J0D01*
G01*
X117822500Y-127905000D01*
G75*
G02*
X117970000Y-128052500I0J-147500D01*
G01*
X117970000Y-128397500D01*
G75*
G02*
X117822500Y-128545000I-147500J0D01*
G01*
X117527500Y-128545000D01*
G75*
G02*
X117380000Y-128397500I0J147500D01*
G01*
G37*
%TD.AperFunction*%
%TO.P,R4,1*%
%TO.N,Net-(R4-Pad1)*%
%TA.AperFunction,SMDPad,CuDef*%
G36*
G01*
X116410000Y-128397500D02*
X116410000Y-128052500D01*
G75*
G02*
X116557500Y-127905000I147500J0D01*
G01*
X116852500Y-127905000D01*
G75*
G02*
X117000000Y-128052500I0J-147500D01*
G01*
X117000000Y-128397500D01*
G75*
G02*
X116852500Y-128545000I-147500J0D01*
G01*
X116557500Y-128545000D01*
G75*
G02*
X116410000Y-128397500I0J147500D01*
G01*
G37*
%TD.AperFunction*%
%TD*%
%TO.P,R3,2*%
%TO.N,GND*%
%TA.AperFunction,SMDPad,CuDef*%
G36*
G01*
X117380000Y-127472500D02*
X117380000Y-127127500D01*
G75*
G02*
X117527500Y-126980000I147500J0D01*
G01*
X117822500Y-126980000D01*
G75*
G02*
X117970000Y-127127500I0J-147500D01*
G01*
X117970000Y-127472500D01*
G75*
G02*
X117822500Y-127620000I-147500J0D01*
G01*
X117527500Y-127620000D01*
G75*
G02*
X117380000Y-127472500I0J147500D01*
G01*
G37*
%TD.AperFunction*%
%TO.P,R3,1*%
%TO.N,Net-(R3-Pad1)*%
%TA.AperFunction,SMDPad,CuDef*%
G36*
G01*
X116410000Y-127472500D02*
X116410000Y-127127500D01*
G75*
G02*
X116557500Y-126980000I147500J0D01*
G01*
X116852500Y-126980000D01*
G75*
G02*
X117000000Y-127127500I0J-147500D01*
G01*
X117000000Y-127472500D01*
G75*
G02*
X116852500Y-127620000I-147500J0D01*
G01*
X116557500Y-127620000D01*
G75*
G02*
X116410000Y-127472500I0J147500D01*
G01*
G37*
%TD.AperFunction*%
%TD*%
%TO.P,R2,2*%
%TO.N,GND*%
%TA.AperFunction,SMDPad,CuDef*%
G36*
G01*
X109860000Y-129902500D02*
X109860000Y-130247500D01*
G75*
G02*
X109712500Y-130395000I-147500J0D01*
G01*
X109417500Y-130395000D01*
G75*
G02*
X109270000Y-130247500I0J147500D01*
G01*
X109270000Y-129902500D01*
G75*
G02*
X109417500Y-129755000I147500J0D01*
G01*
X109712500Y-129755000D01*
G75*
G02*
X109860000Y-129902500I0J-147500D01*
G01*
G37*
%TD.AperFunction*%
%TO.P,R2,1*%
%TO.N,Net-(R2-Pad1)*%
%TA.AperFunction,SMDPad,CuDef*%
G36*
G01*
X110830000Y-129902500D02*
X110830000Y-130247500D01*
G75*
G02*
X110682500Y-130395000I-147500J0D01*
G01*
X110387500Y-130395000D01*
G75*
G02*
X110240000Y-130247500I0J147500D01*
G01*
X110240000Y-129902500D01*
G75*
G02*
X110387500Y-129755000I147500J0D01*
G01*
X110682500Y-129755000D01*
G75*
G02*
X110830000Y-129902500I0J-147500D01*
G01*
G37*
%TD.AperFunction*%
%TD*%
D23*
%TO.P,L1,2*%
%TO.N,Net-(L1-Pad2)*%
X124975000Y-134875000D03*
%TO.P,L1,1*%
%TO.N,Net-(L1-Pad1)*%
X118925000Y-134875000D03*
%TD*%
D16*
%TO.P,J1,2*%
%TO.N,VDC*%
X105900000Y-133860000D03*
%TO.P,J1,1*%
%TO.N,GND*%
X105900000Y-136400000D03*
%TD*%
%TO.P,C9,2*%
%TO.N,GND*%
%TA.AperFunction,SMDPad,CuDef*%
G36*
G01*
X115325000Y-136706250D02*
X115325000Y-135793750D01*
G75*
G02*
X115568750Y-135550000I243750J0D01*
G01*
X116056250Y-135550000D01*
G75*
G02*
X116300000Y-135793750I0J-243750D01*
G01*
X116300000Y-136706250D01*
G75*
G02*
X116056250Y-136950000I-243750J0D01*
G01*
X115568750Y-136950000D01*
G75*
G02*
X115325000Y-136706250I0J243750D01*
G01*
G37*
%TD.AperFunction*%
%TO.P,C9,1*%
%TO.N,+5V*%
%TA.AperFunction,SMDPad,CuDef*%
G36*
G01*
X113450000Y-136706250D02*
X113450000Y-135793750D01*
G75*
G02*
X113693750Y-135550000I243750J0D01*
G01*
X114181250Y-135550000D01*
G75*
G02*
X114425000Y-135793750I0J-243750D01*
G01*
X114425000Y-136706250D01*
G75*
G02*
X114181250Y-136950000I-243750J0D01*
G01*
X113693750Y-136950000D01*
G75*
G02*
X113450000Y-136706250I0J243750D01*
G01*
G37*
%TD.AperFunction*%
%TD*%
%TO.P,C8,2*%
%TO.N,GND*%
%TA.AperFunction,SMDPad,CuDef*%
G36*
G01*
X115325000Y-135181250D02*
X115325000Y-134268750D01*
G75*
G02*
X115568750Y-134025000I243750J0D01*
G01*
X116056250Y-134025000D01*
G75*
G02*
X116300000Y-134268750I0J-243750D01*
G01*
X116300000Y-135181250D01*
G75*
G02*
X116056250Y-135425000I-243750J0D01*
G01*
X115568750Y-135425000D01*
G75*
G02*
X115325000Y-135181250I0J243750D01*
G01*
G37*
%TD.AperFunction*%
%TO.P,C8,1*%
%TO.N,+5V*%
%TA.AperFunction,SMDPad,CuDef*%
G36*
G01*
X113450000Y-135181250D02*
X113450000Y-134268750D01*
G75*
G02*
X113693750Y-134025000I243750J0D01*
G01*
X114181250Y-134025000D01*
G75*
G02*
X114425000Y-134268750I0J-243750D01*
G01*
X114425000Y-135181250D01*
G75*
G02*
X114181250Y-135425000I-243750J0D01*
G01*
X113693750Y-135425000D01*
G75*
G02*
X113450000Y-135181250I0J243750D01*
G01*
G37*
%TD.AperFunction*%
%TD*%
%TO.P,C7,2*%
%TO.N,GND*%
%TA.AperFunction,SMDPad,CuDef*%
G36*
G01*
X116225000Y-139525000D02*
X116225000Y-137375000D01*
G75*
G02*
X116475000Y-137125000I250000J0D01*
G01*
X117225000Y-137125000D01*
G75*
G02*
X117475000Y-137375000I0J-250000D01*
G01*
X117475000Y-139525000D01*
G75*
G02*
X117225000Y-139775000I-250000J0D01*
G01*
X116475000Y-139775000D01*
G75*
G02*
X116225000Y-139525000I0J250000D01*
G01*
G37*
%TD.AperFunction*%
%TO.P,C7,1*%
%TO.N,+5V*%
%TA.AperFunction,SMDPad,CuDef*%
G36*
G01*
X113425000Y-139525000D02*
X113425000Y-137375000D01*
G75*
G02*
X113675000Y-137125000I250000J0D01*
G01*
X114425000Y-137125000D01*
G75*
G02*
X114675000Y-137375000I0J-250000D01*
G01*
X114675000Y-139525000D01*
G75*
G02*
X114425000Y-139775000I-250000J0D01*
G01*
X113675000Y-139775000D01*
G75*
G02*
X113425000Y-139525000I0J250000D01*
G01*
G37*
%TD.AperFunction*%
%TD*%
%TO.P,C6,2*%
%TO.N,GND*%
%TA.AperFunction,SMDPad,CuDef*%
G36*
G01*
X111793750Y-135100000D02*
X112706250Y-135100000D01*
G75*
G02*
X112950000Y-135343750I0J-243750D01*
G01*
X112950000Y-135831250D01*
G75*
G02*
X112706250Y-136075000I-243750J0D01*
G01*
X111793750Y-136075000D01*
G75*
G02*
X111550000Y-135831250I0J243750D01*
G01*
X111550000Y-135343750D01*
G75*
G02*
X111793750Y-135100000I243750J0D01*
G01*
G37*
%TD.AperFunction*%
%TO.P,C6,1*%
%TO.N,VDC*%
%TA.AperFunction,SMDPad,CuDef*%
G36*
G01*
X111793750Y-133225000D02*
X112706250Y-133225000D01*
G75*
G02*
X112950000Y-133468750I0J-243750D01*
G01*
X112950000Y-133956250D01*
G75*
G02*
X112706250Y-134200000I-243750J0D01*
G01*
X111793750Y-134200000D01*
G75*
G02*
X111550000Y-133956250I0J243750D01*
G01*
X111550000Y-133468750D01*
G75*
G02*
X111793750Y-133225000I243750J0D01*
G01*
G37*
%TD.AperFunction*%
%TD*%
%TO.P,C5,2*%
%TO.N,GND*%
%TA.AperFunction,SMDPad,CuDef*%
G36*
G01*
X110243750Y-135100000D02*
X111156250Y-135100000D01*
G75*
G02*
X111400000Y-135343750I0J-243750D01*
G01*
X111400000Y-135831250D01*
G75*
G02*
X111156250Y-136075000I-243750J0D01*
G01*
X110243750Y-136075000D01*
G75*
G02*
X110000000Y-135831250I0J243750D01*
G01*
X110000000Y-135343750D01*
G75*
G02*
X110243750Y-135100000I243750J0D01*
G01*
G37*
%TD.AperFunction*%
%TO.P,C5,1*%
%TO.N,VDC*%
%TA.AperFunction,SMDPad,CuDef*%
G36*
G01*
X110243750Y-133225000D02*
X111156250Y-133225000D01*
G75*
G02*
X111400000Y-133468750I0J-243750D01*
G01*
X111400000Y-133956250D01*
G75*
G02*
X111156250Y-134200000I-243750J0D01*
G01*
X110243750Y-134200000D01*
G75*
G02*
X110000000Y-133956250I0J243750D01*
G01*
X110000000Y-133468750D01*
G75*
G02*
X110243750Y-133225000I243750J0D01*
G01*
G37*
%TD.AperFunction*%
%TD*%
%TO.P,C4,2*%
%TO.N,GND*%
%TA.AperFunction,SMDPad,CuDef*%
G36*
G01*
X107425000Y-136025000D02*
X109575000Y-136025000D01*
G75*
G02*
X109825000Y-136275000I0J-250000D01*
G01*
X109825000Y-137025000D01*
G75*
G02*
X109575000Y-137275000I-250000J0D01*
G01*
X107425000Y-137275000D01*
G75*
G02*
X107175000Y-137025000I0J250000D01*
G01*
X107175000Y-136275000D01*
G75*
G02*
X107425000Y-136025000I250000J0D01*
G01*
G37*
%TD.AperFunction*%
%TO.P,C4,1*%
%TO.N,VDC*%
%TA.AperFunction,SMDPad,CuDef*%
G36*
G01*
X107425000Y-133225000D02*
X109575000Y-133225000D01*
G75*
G02*
X109825000Y-133475000I0J-250000D01*
G01*
X109825000Y-134225000D01*
G75*
G02*
X109575000Y-134475000I-250000J0D01*
G01*
X107425000Y-134475000D01*
G75*
G02*
X107175000Y-134225000I0J250000D01*
G01*
X107175000Y-133475000D01*
G75*
G02*
X107425000Y-133225000I250000J0D01*
G01*
G37*
%TD.AperFunction*%
%TD*%
%TO.P,C3,2*%
%TO.N,GND*%
%TA.AperFunction,SMDPad,CuDef*%
G36*
G01*
X122550000Y-125418750D02*
X122550000Y-126331250D01*
G75*
G02*
X122306250Y-126575000I-243750J0D01*
G01*
X121818750Y-126575000D01*
G75*
G02*
X121575000Y-126331250I0J243750D01*
G01*
X121575000Y-125418750D01*
G75*
G02*
X121818750Y-125175000I243750J0D01*
G01*
X122306250Y-125175000D01*
G75*
G02*
X122550000Y-125418750I0J-243750D01*
G01*
G37*
%TD.AperFunction*%
%TO.P,C3,1*%
%TO.N,+BATT*%
%TA.AperFunction,SMDPad,CuDef*%
G36*
G01*
X124425000Y-125418750D02*
X124425000Y-126331250D01*
G75*
G02*
X124181250Y-126575000I-243750J0D01*
G01*
X123693750Y-126575000D01*
G75*
G02*
X123450000Y-126331250I0J243750D01*
G01*
X123450000Y-125418750D01*
G75*
G02*
X123693750Y-125175000I243750J0D01*
G01*
X124181250Y-125175000D01*
G75*
G02*
X124425000Y-125418750I0J-243750D01*
G01*
G37*
%TD.AperFunction*%
%TD*%
D24*
%TO.N,GND*%
X108475000Y-129500000D03*
X108475000Y-130700000D03*
X113300000Y-129600000D03*
X114300000Y-129600000D03*
X113300000Y-130500000D03*
X114300000Y-130500000D03*
X120900000Y-130975000D03*
X119900000Y-130975000D03*
X118475000Y-121450000D03*
X118475000Y-122350000D03*
X118475000Y-123250000D03*
X118475000Y-124150000D03*
X117500000Y-124150000D03*
X117500000Y-123250000D03*
X117500000Y-122350000D03*
X117500000Y-121450000D03*
X103400000Y-139950000D03*
X104300000Y-139950000D03*
X105200000Y-139950000D03*
X106100000Y-139950000D03*
X107000000Y-139950000D03*
X107000000Y-140850000D03*
X106100000Y-140850000D03*
X105200000Y-140850000D03*
X104300000Y-140850000D03*
X103400000Y-140850000D03*
X103400000Y-141750000D03*
X104300000Y-141750000D03*
X105200000Y-141750000D03*
X106100000Y-141750000D03*
X107000000Y-141750000D03*
X125775000Y-142925000D03*
X125775000Y-142025000D03*
X125775000Y-141125000D03*
X125775000Y-140225000D03*
X125775000Y-139325000D03*
X126675000Y-139325000D03*
X126675000Y-140225000D03*
X126675000Y-141125000D03*
X126675000Y-142025000D03*
X126675000Y-142925000D03*
X127575000Y-142925000D03*
X127575000Y-142025000D03*
X127575000Y-141125000D03*
X127575000Y-140225000D03*
X127575000Y-139325000D03*
X119475000Y-121450000D03*
X119475000Y-122350000D03*
X119475000Y-123250000D03*
X119475000Y-124150000D03*
X121900000Y-130975000D03*
X112700000Y-121000000D03*
X111800000Y-121000000D03*
X110900000Y-121000000D03*
X110000000Y-121000000D03*
X109100000Y-121000000D03*
X108200000Y-121000000D03*
X107300000Y-121000000D03*
X103400000Y-139000000D03*
X104300000Y-139000000D03*
X105200000Y-139000000D03*
X106100000Y-139000000D03*
X107000000Y-139000000D03*
X122400000Y-133325000D03*
X122400000Y-134325000D03*
X122400000Y-135325000D03*
X122400000Y-136325000D03*
X122400000Y-137225000D03*
X128700000Y-129525000D03*
X128700000Y-130500000D03*
X128700000Y-131450000D03*
X128700000Y-132400000D03*
X128700000Y-133350000D03*
X116075000Y-148950000D03*
X117025000Y-148950000D03*
X117975000Y-148950000D03*
X118925000Y-148950000D03*
X119875000Y-148950000D03*
X114550000Y-121025000D03*
X113625000Y-121025000D03*
X122400000Y-132400000D03*
X125850000Y-129000000D03*
X116075000Y-147975000D03*
X117025000Y-147975000D03*
X117975000Y-147975000D03*
X118925000Y-147975000D03*
X119875000Y-147975000D03*
X119875000Y-147000000D03*
X118925000Y-147000000D03*
X117975000Y-147000000D03*
X117025000Y-147000000D03*
X116075000Y-147000000D03*
X106100000Y-144950000D03*
X107000000Y-144950000D03*
X107000000Y-144050000D03*
X106100000Y-144050000D03*
X105200000Y-144050000D03*
X104300000Y-144050000D03*
X103400000Y-144050000D03*
X103400000Y-144950000D03*
X104300000Y-144950000D03*
X105200000Y-144950000D03*
X117500000Y-125050000D03*
X118475000Y-125050000D03*
X119475000Y-125050000D03*
X116775000Y-135500000D03*
X116775000Y-136600000D03*
X118375000Y-137600000D03*
X118375000Y-138675000D03*
X118375000Y-139700000D03*
X110525000Y-136725000D03*
X111500000Y-136725000D03*
X109500000Y-138100000D03*
X108600000Y-138100000D03*
%TO.N,VDC*%
X109350000Y-127300000D03*
X111975000Y-124775000D03*
%TO.N,+5V*%
X112850000Y-137725000D03*
X112850000Y-136925000D03*
X113875000Y-124750000D03*
X112850000Y-140175000D03*
X112850000Y-138550000D03*
X112850000Y-139350000D03*
X115100000Y-140200000D03*
X115100000Y-139375000D03*
X115100000Y-138550000D03*
X112850000Y-141000000D03*
X115100000Y-141025000D03*
%TO.N,Net-(D1-Pad1)*%
X118600000Y-130950000D03*
X104700000Y-125000000D03*
%TO.N,Net-(D2-Pad1)*%
X113100000Y-127525000D03*
X106200000Y-125000000D03*
%TO.N,Net-(D3-Pad1)*%
X117600000Y-131300000D03*
X107600000Y-123700000D03*
%TO.N,BType*%
X111328888Y-131434574D03*
%TO.N,NTC*%
X117725000Y-126075000D03*
%TD*%
D25*
%TO.N,Net-(C1-Pad1)*%
X112150000Y-129125000D02*
X111775000Y-129125000D01*
X111775000Y-129125000D02*
X111250000Y-128600000D01*
X111250000Y-127725000D02*
X110945010Y-127420010D01*
X111250000Y-128600000D02*
X111250000Y-127725000D01*
X110050000Y-126945000D02*
X110050000Y-126650000D01*
X110525010Y-127420010D02*
X110050000Y-126945000D01*
X110945010Y-127420010D02*
X110525010Y-127420010D01*
%TO.N,VCC*%
X110598232Y-131000000D02*
X110535000Y-131000000D01*
X110973232Y-130625000D02*
X110598232Y-131000000D01*
X112150000Y-130625000D02*
X110973232Y-130625000D01*
X110535000Y-131018232D02*
X110535000Y-131000000D01*
X109690000Y-131863232D02*
X110535000Y-131018232D01*
X109690000Y-131950000D02*
X109690000Y-131863232D01*
X107425000Y-130110000D02*
X107425000Y-131300000D01*
X108075000Y-131950000D02*
X109690000Y-131950000D01*
X107425000Y-131300000D02*
X108075000Y-131950000D01*
X107425000Y-130110000D02*
X106475000Y-130110000D01*
X106475000Y-130110000D02*
X105525000Y-130110000D01*
%TO.N,+BATT*%
X124650000Y-128750000D02*
X124900000Y-128500000D01*
X122250000Y-128750000D02*
X124650000Y-128750000D01*
X124900000Y-128500000D02*
X124900000Y-127600000D01*
X115950000Y-129625000D02*
X121375000Y-129625000D01*
X121375000Y-129625000D02*
X122250000Y-128750000D01*
%TO.N,VDC*%
X111950000Y-125690000D02*
X111950000Y-124800000D01*
X111950000Y-124800000D02*
X111975000Y-124775000D01*
X109350000Y-127960000D02*
X109565000Y-128175000D01*
X109350000Y-127300000D02*
X109350000Y-127960000D01*
%TO.N,+5V*%
X114770000Y-125695000D02*
X114775000Y-125690000D01*
X113825000Y-125695000D02*
X114770000Y-125695000D01*
X115355000Y-125690000D02*
X115705000Y-125340000D01*
X114775000Y-125690000D02*
X115355000Y-125690000D01*
X113825000Y-125695000D02*
X113825000Y-124800000D01*
X113825000Y-124800000D02*
X113875000Y-124750000D01*
X114050000Y-139125000D02*
X113600000Y-139125000D01*
X113925000Y-139125000D02*
X112850000Y-140200000D01*
X114050000Y-139125000D02*
X113925000Y-139125000D01*
%TO.N,Net-(C10-Pad2)*%
X113830000Y-126660000D02*
X113825000Y-126665000D01*
X114775000Y-126660000D02*
X113830000Y-126660000D01*
X112875000Y-126665000D02*
X113825000Y-126665000D01*
X113800000Y-126690000D02*
X113825000Y-126665000D01*
X113800000Y-128475000D02*
X113800000Y-126690000D01*
%TO.N,Net-(D1-Pad2)*%
X105525000Y-128800000D02*
X104700000Y-127975000D01*
X105525000Y-129140000D02*
X105525000Y-128800000D01*
%TO.N,Net-(D1-Pad1)*%
X118275000Y-130625000D02*
X118600000Y-130950000D01*
X115950000Y-130625000D02*
X118275000Y-130625000D01*
X104700000Y-125000000D02*
X104700000Y-126400000D01*
%TO.N,Net-(D2-Pad2)*%
X106475000Y-128312500D02*
X106150000Y-127987500D01*
X106475000Y-129140000D02*
X106475000Y-128312500D01*
%TO.N,Net-(D2-Pad1)*%
X113300000Y-128475000D02*
X113300000Y-127725000D01*
X113300000Y-127725000D02*
X113100000Y-127525000D01*
X106200000Y-126362500D02*
X106150000Y-126412500D01*
X106200000Y-125000000D02*
X106200000Y-126362500D01*
%TO.N,Net-(D3-Pad2)*%
X107425000Y-128137500D02*
X107600000Y-127962500D01*
X107425000Y-129140000D02*
X107425000Y-128137500D01*
%TO.N,Net-(D3-Pad1)*%
X115950000Y-131125000D02*
X117425000Y-131125000D01*
X117425000Y-131125000D02*
X117600000Y-131300000D01*
X107600000Y-123700000D02*
X107600000Y-126387500D01*
%TO.N,Net-(L1-Pad2)*%
X124900000Y-129500000D02*
X124900000Y-130400000D01*
X124700000Y-129300000D02*
X124900000Y-129500000D01*
X122450000Y-129300000D02*
X124700000Y-129300000D01*
X115950000Y-130125000D02*
X121625000Y-130125000D01*
X121625000Y-130125000D02*
X122450000Y-129300000D01*
%TO.N,Net-(R2-Pad1)*%
X110585000Y-130125000D02*
X110535000Y-130075000D01*
X112150000Y-130125000D02*
X110585000Y-130125000D01*
%TO.N,Net-(R3-Pad1)*%
X114925001Y-127749999D02*
X115500001Y-127749999D01*
X114800000Y-128475000D02*
X114800000Y-127875000D01*
X114800000Y-127875000D02*
X114925001Y-127749999D01*
X115950000Y-127300000D02*
X116705000Y-127300000D01*
X115500001Y-127749999D02*
X115950000Y-127300000D01*
%TO.N,Net-(R4-Pad1)*%
X115550000Y-128225000D02*
X115300000Y-128475000D01*
X116705000Y-128225000D02*
X115550000Y-128225000D01*
%TO.N,Net-(R10-Pad2)*%
X110819575Y-132109575D02*
X110660000Y-131950000D01*
X111662464Y-132100000D02*
X111652889Y-132109575D01*
X111652889Y-132109575D02*
X110819575Y-132109575D01*
X112625000Y-132100000D02*
X111662464Y-132100000D01*
X112150000Y-131625000D02*
X112625000Y-132100000D01*
X112625000Y-132100000D02*
X112800000Y-132275000D01*
%TO.N,Net-(R11-Pad2)*%
X110535000Y-128175000D02*
X110535000Y-129125000D01*
X110573232Y-129125000D02*
X110535000Y-129125000D01*
X111073232Y-129625000D02*
X110573232Y-129125000D01*
X112150000Y-129625000D02*
X111073232Y-129625000D01*
%TO.N,Net-(R13-Pad2)*%
X111940000Y-126650000D02*
X111950000Y-126660000D01*
X111000000Y-126650000D02*
X111940000Y-126650000D01*
X111950000Y-127625000D02*
X111950000Y-126735000D01*
X112800000Y-128475000D02*
X111950000Y-127625000D01*
%TO.N,BType*%
X112150000Y-131125000D02*
X111638462Y-131125000D01*
X111638462Y-131125000D02*
X111328888Y-131434574D01*
%TO.N,NTC*%
X116650000Y-126310000D02*
X115705000Y-126310000D01*
X114300000Y-127728588D02*
X114728599Y-127299989D01*
X114300000Y-128475000D02*
X114300000Y-127728588D01*
X114728599Y-127299989D02*
X115200011Y-127299989D01*
X115705000Y-126795000D02*
X115705000Y-126310000D01*
X115200011Y-127299989D02*
X115705000Y-126795000D01*
X116650000Y-126310000D02*
X117490000Y-126310000D01*
X117490000Y-126310000D02*
X117725000Y-126075000D01*
%TD*%
D26*
%TO.N,VDC*%
G36*
X113373549Y-132675000D02*
G01*
X113379341Y-132733810D01*
X113396496Y-132790360D01*
X113423220Y-132840357D01*
X113424783Y-132959137D01*
X112978329Y-134275000D01*
X109900000Y-134275000D01*
X109880491Y-134276921D01*
X109861732Y-134282612D01*
X109844443Y-134291853D01*
X109829289Y-134304289D01*
X109813176Y-134325386D01*
X109442004Y-134974937D01*
X105016451Y-134970116D01*
X105016451Y-134575000D01*
X105010659Y-134516190D01*
X105010000Y-134514018D01*
X105010000Y-134435982D01*
X105010659Y-134433810D01*
X105016451Y-134375000D01*
X105016451Y-133925000D01*
X105010659Y-133866190D01*
X104993504Y-133809640D01*
X104965647Y-133757523D01*
X104928158Y-133711842D01*
X104882477Y-133674353D01*
X104830360Y-133646496D01*
X104773810Y-133629341D01*
X104715000Y-133623549D01*
X103390000Y-133623549D01*
X103390000Y-133326451D01*
X104715000Y-133326451D01*
X104729733Y-133325000D01*
X104760000Y-133325000D01*
X104779509Y-133323079D01*
X104798268Y-133317388D01*
X104815557Y-133308147D01*
X104815852Y-133307905D01*
X104830360Y-133303504D01*
X104882477Y-133275647D01*
X104928158Y-133238158D01*
X104965647Y-133192477D01*
X104993504Y-133140360D01*
X105010659Y-133083810D01*
X105016451Y-133025000D01*
X105016451Y-132570072D01*
X112219692Y-132574979D01*
X112373818Y-132677730D01*
X112379341Y-132733810D01*
X112396496Y-132790360D01*
X112424353Y-132842477D01*
X112461842Y-132888158D01*
X112507523Y-132925647D01*
X112559640Y-132953504D01*
X112616190Y-132970659D01*
X112675000Y-132976451D01*
X112925000Y-132976451D01*
X112983810Y-132970659D01*
X113040360Y-132953504D01*
X113092477Y-132925647D01*
X113138158Y-132888158D01*
X113175647Y-132842477D01*
X113203504Y-132790360D01*
X113220659Y-132733810D01*
X113226451Y-132675000D01*
X113226451Y-132281132D01*
X113227055Y-132274999D01*
X113226451Y-132268866D01*
X113226451Y-131875000D01*
X113220659Y-131816190D01*
X113203504Y-131759640D01*
X113200000Y-131753084D01*
X113200000Y-131175000D01*
X113373549Y-131175000D01*
X113373549Y-132675000D01*
G37*
X113373549Y-132675000D02*
X113379341Y-132733810D01*
X113396496Y-132790360D01*
X113423220Y-132840357D01*
X113424783Y-132959137D01*
X112978329Y-134275000D01*
X109900000Y-134275000D01*
X109880491Y-134276921D01*
X109861732Y-134282612D01*
X109844443Y-134291853D01*
X109829289Y-134304289D01*
X109813176Y-134325386D01*
X109442004Y-134974937D01*
X105016451Y-134970116D01*
X105016451Y-134575000D01*
X105010659Y-134516190D01*
X105010000Y-134514018D01*
X105010000Y-134435982D01*
X105010659Y-134433810D01*
X105016451Y-134375000D01*
X105016451Y-133925000D01*
X105010659Y-133866190D01*
X104993504Y-133809640D01*
X104965647Y-133757523D01*
X104928158Y-133711842D01*
X104882477Y-133674353D01*
X104830360Y-133646496D01*
X104773810Y-133629341D01*
X104715000Y-133623549D01*
X103390000Y-133623549D01*
X103390000Y-133326451D01*
X104715000Y-133326451D01*
X104729733Y-133325000D01*
X104760000Y-133325000D01*
X104779509Y-133323079D01*
X104798268Y-133317388D01*
X104815557Y-133308147D01*
X104815852Y-133307905D01*
X104830360Y-133303504D01*
X104882477Y-133275647D01*
X104928158Y-133238158D01*
X104965647Y-133192477D01*
X104993504Y-133140360D01*
X105010659Y-133083810D01*
X105016451Y-133025000D01*
X105016451Y-132570072D01*
X112219692Y-132574979D01*
X112373818Y-132677730D01*
X112379341Y-132733810D01*
X112396496Y-132790360D01*
X112424353Y-132842477D01*
X112461842Y-132888158D01*
X112507523Y-132925647D01*
X112559640Y-132953504D01*
X112616190Y-132970659D01*
X112675000Y-132976451D01*
X112925000Y-132976451D01*
X112983810Y-132970659D01*
X113040360Y-132953504D01*
X113092477Y-132925647D01*
X113138158Y-132888158D01*
X113175647Y-132842477D01*
X113203504Y-132790360D01*
X113220659Y-132733810D01*
X113226451Y-132675000D01*
X113226451Y-132281132D01*
X113227055Y-132274999D01*
X113226451Y-132268866D01*
X113226451Y-131875000D01*
X113220659Y-131816190D01*
X113203504Y-131759640D01*
X113200000Y-131753084D01*
X113200000Y-131175000D01*
X113373549Y-131175000D01*
X113373549Y-132675000D01*
%TO.N,Net-(L1-Pad1)*%
G36*
X114373549Y-132675000D02*
G01*
X114379341Y-132733810D01*
X114396496Y-132790360D01*
X114424353Y-132842477D01*
X114461842Y-132888158D01*
X114507523Y-132925647D01*
X114559640Y-132953504D01*
X114616190Y-132970659D01*
X114623527Y-132971382D01*
X114624010Y-132971564D01*
X114650000Y-132975000D01*
X114660267Y-132975000D01*
X114675000Y-132976451D01*
X114925000Y-132976451D01*
X114939733Y-132975000D01*
X115160267Y-132975000D01*
X115175000Y-132976451D01*
X115425000Y-132976451D01*
X115439733Y-132975000D01*
X120150000Y-132975000D01*
X120150000Y-136675000D01*
X117525000Y-136675000D01*
X117525000Y-134850000D01*
X117523079Y-134830491D01*
X117517388Y-134811732D01*
X117508147Y-134794443D01*
X117495711Y-134779289D01*
X117483899Y-134769186D01*
X116573849Y-134105929D01*
X116559950Y-134060111D01*
X116509568Y-133965853D01*
X116441765Y-133883235D01*
X116359147Y-133815432D01*
X116264889Y-133765050D01*
X116162613Y-133734025D01*
X116056250Y-133723549D01*
X116049188Y-133723549D01*
X116008899Y-133694186D01*
X115992001Y-133684248D01*
X115973489Y-133677798D01*
X115950000Y-133675000D01*
X114613367Y-133675000D01*
X114225000Y-132852575D01*
X114225000Y-132689733D01*
X114226451Y-132675000D01*
X114226451Y-131175000D01*
X114373549Y-131175000D01*
X114373549Y-132675000D01*
G37*
X114373549Y-132675000D02*
X114379341Y-132733810D01*
X114396496Y-132790360D01*
X114424353Y-132842477D01*
X114461842Y-132888158D01*
X114507523Y-132925647D01*
X114559640Y-132953504D01*
X114616190Y-132970659D01*
X114623527Y-132971382D01*
X114624010Y-132971564D01*
X114650000Y-132975000D01*
X114660267Y-132975000D01*
X114675000Y-132976451D01*
X114925000Y-132976451D01*
X114939733Y-132975000D01*
X115160267Y-132975000D01*
X115175000Y-132976451D01*
X115425000Y-132976451D01*
X115439733Y-132975000D01*
X120150000Y-132975000D01*
X120150000Y-136675000D01*
X117525000Y-136675000D01*
X117525000Y-134850000D01*
X117523079Y-134830491D01*
X117517388Y-134811732D01*
X117508147Y-134794443D01*
X117495711Y-134779289D01*
X117483899Y-134769186D01*
X116573849Y-134105929D01*
X116559950Y-134060111D01*
X116509568Y-133965853D01*
X116441765Y-133883235D01*
X116359147Y-133815432D01*
X116264889Y-133765050D01*
X116162613Y-133734025D01*
X116056250Y-133723549D01*
X116049188Y-133723549D01*
X116008899Y-133694186D01*
X115992001Y-133684248D01*
X115973489Y-133677798D01*
X115950000Y-133675000D01*
X114613367Y-133675000D01*
X114225000Y-132852575D01*
X114225000Y-132689733D01*
X114226451Y-132675000D01*
X114226451Y-131175000D01*
X114373549Y-131175000D01*
X114373549Y-132675000D01*
%TO.N,+5V*%
G36*
X113873549Y-132675000D02*
G01*
X113879341Y-132733810D01*
X113888399Y-132763670D01*
X113926361Y-132991440D01*
X113931463Y-133010368D01*
X113935557Y-133019721D01*
X114385557Y-133919721D01*
X114396001Y-133936311D01*
X114409480Y-133950545D01*
X114426436Y-133962416D01*
X114617433Y-134068525D01*
X114700000Y-134316227D01*
X114700000Y-137400000D01*
X114701921Y-137419509D01*
X114707612Y-137438268D01*
X114716853Y-137455557D01*
X114724742Y-137465850D01*
X115400000Y-138237573D01*
X115400000Y-142400237D01*
X115266993Y-142400554D01*
X115247489Y-142402522D01*
X115228743Y-142408257D01*
X115211476Y-142417540D01*
X115196352Y-142430012D01*
X115188636Y-142438726D01*
X114171405Y-143731816D01*
X114160853Y-143748337D01*
X114153727Y-143766599D01*
X114150000Y-143793644D01*
X114150000Y-145350000D01*
X111550000Y-145350000D01*
X111550000Y-141353042D01*
X112585420Y-139651995D01*
X112593922Y-139634331D01*
X112598815Y-139615348D01*
X112600000Y-139600000D01*
X112600000Y-136762767D01*
X113268475Y-136440055D01*
X113285208Y-136429843D01*
X113299628Y-136416563D01*
X113311180Y-136400725D01*
X113319420Y-136382937D01*
X113324031Y-136363884D01*
X113325000Y-136350000D01*
X113325000Y-134389004D01*
X113721152Y-133002472D01*
X113725000Y-132975000D01*
X113725000Y-132689733D01*
X113726451Y-132675000D01*
X113726451Y-131175000D01*
X113873549Y-131175000D01*
X113873549Y-132675000D01*
G37*
X113873549Y-132675000D02*
X113879341Y-132733810D01*
X113888399Y-132763670D01*
X113926361Y-132991440D01*
X113931463Y-133010368D01*
X113935557Y-133019721D01*
X114385557Y-133919721D01*
X114396001Y-133936311D01*
X114409480Y-133950545D01*
X114426436Y-133962416D01*
X114617433Y-134068525D01*
X114700000Y-134316227D01*
X114700000Y-137400000D01*
X114701921Y-137419509D01*
X114707612Y-137438268D01*
X114716853Y-137455557D01*
X114724742Y-137465850D01*
X115400000Y-138237573D01*
X115400000Y-142400237D01*
X115266993Y-142400554D01*
X115247489Y-142402522D01*
X115228743Y-142408257D01*
X115211476Y-142417540D01*
X115196352Y-142430012D01*
X115188636Y-142438726D01*
X114171405Y-143731816D01*
X114160853Y-143748337D01*
X114153727Y-143766599D01*
X114150000Y-143793644D01*
X114150000Y-145350000D01*
X111550000Y-145350000D01*
X111550000Y-141353042D01*
X112585420Y-139651995D01*
X112593922Y-139634331D01*
X112598815Y-139615348D01*
X112600000Y-139600000D01*
X112600000Y-136762767D01*
X113268475Y-136440055D01*
X113285208Y-136429843D01*
X113299628Y-136416563D01*
X113311180Y-136400725D01*
X113319420Y-136382937D01*
X113324031Y-136363884D01*
X113325000Y-136350000D01*
X113325000Y-134389004D01*
X113721152Y-133002472D01*
X113725000Y-132975000D01*
X113725000Y-132689733D01*
X113726451Y-132675000D01*
X113726451Y-131175000D01*
X113873549Y-131175000D01*
X113873549Y-132675000D01*
%TO.N,+BATT*%
G36*
X125103307Y-122064464D02*
G01*
X125199567Y-122104336D01*
X125282232Y-122167768D01*
X125345664Y-122250433D01*
X125385536Y-122346693D01*
X125400000Y-122456559D01*
X125400000Y-122868470D01*
X125401512Y-122885795D01*
X125431528Y-123056427D01*
X125436801Y-123075308D01*
X125443353Y-123088998D01*
X125529799Y-123239144D01*
X125539754Y-123253404D01*
X126451230Y-124343213D01*
X126524544Y-124470549D01*
X126550000Y-124615260D01*
X126550000Y-127843441D01*
X126535536Y-127953307D01*
X126495664Y-128049567D01*
X126432232Y-128132232D01*
X126349567Y-128195664D01*
X126253307Y-128235536D01*
X126143441Y-128250000D01*
X123406559Y-128250000D01*
X123296693Y-128235536D01*
X123200433Y-128195664D01*
X123117768Y-128132232D01*
X123054336Y-128049567D01*
X123014464Y-127953307D01*
X123000000Y-127843441D01*
X123000000Y-122456559D01*
X123014464Y-122346693D01*
X123054336Y-122250433D01*
X123117768Y-122167768D01*
X123200433Y-122104336D01*
X123296693Y-122064464D01*
X123406559Y-122050000D01*
X124993441Y-122050000D01*
X125103307Y-122064464D01*
G37*
X125103307Y-122064464D02*
X125199567Y-122104336D01*
X125282232Y-122167768D01*
X125345664Y-122250433D01*
X125385536Y-122346693D01*
X125400000Y-122456559D01*
X125400000Y-122868470D01*
X125401512Y-122885795D01*
X125431528Y-123056427D01*
X125436801Y-123075308D01*
X125443353Y-123088998D01*
X125529799Y-123239144D01*
X125539754Y-123253404D01*
X126451230Y-124343213D01*
X126524544Y-124470549D01*
X126550000Y-124615260D01*
X126550000Y-127843441D01*
X126535536Y-127953307D01*
X126495664Y-128049567D01*
X126432232Y-128132232D01*
X126349567Y-128195664D01*
X126253307Y-128235536D01*
X126143441Y-128250000D01*
X123406559Y-128250000D01*
X123296693Y-128235536D01*
X123200433Y-128195664D01*
X123117768Y-128132232D01*
X123054336Y-128049567D01*
X123014464Y-127953307D01*
X123000000Y-127843441D01*
X123000000Y-122456559D01*
X123014464Y-122346693D01*
X123054336Y-122250433D01*
X123117768Y-122167768D01*
X123200433Y-122104336D01*
X123296693Y-122064464D01*
X123406559Y-122050000D01*
X124993441Y-122050000D01*
X125103307Y-122064464D01*
%TO.N,Net-(L1-Pad2)*%
G36*
X126253307Y-129764464D02*
G01*
X126349567Y-129804336D01*
X126432232Y-129867768D01*
X126495664Y-129950433D01*
X126535536Y-130046693D01*
X126550000Y-130156559D01*
X126550000Y-136293441D01*
X126535536Y-136403307D01*
X126495664Y-136499567D01*
X126432232Y-136582232D01*
X126349567Y-136645664D01*
X126253307Y-136685536D01*
X126143441Y-136700000D01*
X123606559Y-136700000D01*
X123496693Y-136685536D01*
X123400433Y-136645664D01*
X123317768Y-136582232D01*
X123254336Y-136499567D01*
X123214464Y-136403307D01*
X123200000Y-136293441D01*
X123200000Y-130156559D01*
X123214464Y-130046693D01*
X123254336Y-129950433D01*
X123317768Y-129867768D01*
X123400433Y-129804336D01*
X123496693Y-129764464D01*
X123606559Y-129750000D01*
X126143441Y-129750000D01*
X126253307Y-129764464D01*
G37*
X126253307Y-129764464D02*
X126349567Y-129804336D01*
X126432232Y-129867768D01*
X126495664Y-129950433D01*
X126535536Y-130046693D01*
X126550000Y-130156559D01*
X126550000Y-136293441D01*
X126535536Y-136403307D01*
X126495664Y-136499567D01*
X126432232Y-136582232D01*
X126349567Y-136645664D01*
X126253307Y-136685536D01*
X126143441Y-136700000D01*
X123606559Y-136700000D01*
X123496693Y-136685536D01*
X123400433Y-136645664D01*
X123317768Y-136582232D01*
X123254336Y-136499567D01*
X123214464Y-136403307D01*
X123200000Y-136293441D01*
X123200000Y-130156559D01*
X123214464Y-130046693D01*
X123254336Y-129950433D01*
X123317768Y-129867768D01*
X123400433Y-129804336D01*
X123496693Y-129764464D01*
X123606559Y-129750000D01*
X126143441Y-129750000D01*
X126253307Y-129764464D01*
%TO.N,GND*%
G36*
X128325040Y-120358429D02*
G01*
X128637699Y-120452827D01*
X128926068Y-120606156D01*
X129179167Y-120812578D01*
X129387345Y-121064223D01*
X129542685Y-121351518D01*
X129639261Y-121663508D01*
X129675000Y-122003540D01*
X129675001Y-147984093D01*
X129641571Y-148325041D01*
X129547173Y-148637700D01*
X129393843Y-148926070D01*
X129187422Y-149179167D01*
X128935780Y-149387344D01*
X128648481Y-149542685D01*
X128336497Y-149639260D01*
X127996460Y-149675000D01*
X102015897Y-149675000D01*
X101674959Y-149641571D01*
X101362300Y-149547173D01*
X101073930Y-149393843D01*
X100820833Y-149187422D01*
X100612656Y-148935780D01*
X100457315Y-148648481D01*
X100360740Y-148336497D01*
X100325000Y-147996460D01*
X100325000Y-133225000D01*
X102990000Y-133225000D01*
X102990000Y-133775000D01*
X102995764Y-133833527D01*
X103012836Y-133889805D01*
X103033549Y-133928556D01*
X103033549Y-134375000D01*
X103039341Y-134433810D01*
X103051836Y-134475000D01*
X103039341Y-134516190D01*
X103033549Y-134575000D01*
X103033549Y-135025000D01*
X103039341Y-135083810D01*
X103051836Y-135125000D01*
X103039341Y-135166190D01*
X103033549Y-135225000D01*
X103033549Y-135675000D01*
X103039341Y-135733810D01*
X103056496Y-135790360D01*
X103084353Y-135842477D01*
X103121842Y-135888158D01*
X103167523Y-135925647D01*
X103219640Y-135953504D01*
X103276190Y-135970659D01*
X103335000Y-135976451D01*
X104715000Y-135976451D01*
X104773810Y-135970659D01*
X104830360Y-135953504D01*
X104882477Y-135925647D01*
X104928158Y-135888158D01*
X104965647Y-135842477D01*
X104993504Y-135790360D01*
X105010659Y-135733810D01*
X105016451Y-135675000D01*
X105016451Y-135370116D01*
X109499673Y-135375000D01*
X109578935Y-135364429D01*
X109633883Y-135343468D01*
X109683686Y-135312190D01*
X109726430Y-135271797D01*
X109760473Y-135223842D01*
X110074097Y-134675000D01*
X112925000Y-134675000D01*
X112925000Y-136161699D01*
X112369575Y-136429835D01*
X112333329Y-136450559D01*
X112287868Y-136487868D01*
X112250559Y-136533329D01*
X112222836Y-136585195D01*
X112205764Y-136641473D01*
X112200000Y-136700000D01*
X112200000Y-139515875D01*
X111193740Y-141169016D01*
X111172836Y-141210195D01*
X111155764Y-141266473D01*
X111150000Y-141325000D01*
X111150000Y-145450000D01*
X111155764Y-145508527D01*
X111172836Y-145564805D01*
X111200559Y-145616671D01*
X111237868Y-145662132D01*
X111283329Y-145699441D01*
X111335195Y-145727164D01*
X111391473Y-145744236D01*
X111450000Y-145750000D01*
X114250000Y-145750000D01*
X114308527Y-145744236D01*
X114364805Y-145727164D01*
X114416671Y-145699441D01*
X114462132Y-145662132D01*
X114499441Y-145616671D01*
X114527164Y-145564805D01*
X114544236Y-145508527D01*
X114550000Y-145450000D01*
X114550000Y-144533001D01*
X114595575Y-144601209D01*
X114748791Y-144754425D01*
X114928955Y-144874807D01*
X115129142Y-144957727D01*
X115341659Y-145000000D01*
X115558341Y-145000000D01*
X115770858Y-144957727D01*
X115971045Y-144874807D01*
X116151209Y-144754425D01*
X116304425Y-144601209D01*
X116424807Y-144421045D01*
X116450000Y-144360224D01*
X116475193Y-144421045D01*
X116595575Y-144601209D01*
X116748791Y-144754425D01*
X116928955Y-144874807D01*
X117129142Y-144957727D01*
X117341659Y-145000000D01*
X117558341Y-145000000D01*
X117770858Y-144957727D01*
X117971045Y-144874807D01*
X118151209Y-144754425D01*
X118304425Y-144601209D01*
X118424807Y-144421045D01*
X118507727Y-144220858D01*
X118550000Y-144008341D01*
X118550000Y-143791659D01*
X118507727Y-143579142D01*
X118424807Y-143378955D01*
X118304425Y-143198791D01*
X118151209Y-143045575D01*
X117971045Y-142925193D01*
X117770858Y-142842273D01*
X117558341Y-142800000D01*
X117341659Y-142800000D01*
X117129142Y-142842273D01*
X116928955Y-142925193D01*
X116748791Y-143045575D01*
X116595575Y-143198791D01*
X116475193Y-143378955D01*
X116450000Y-143439776D01*
X116424807Y-143378955D01*
X116304425Y-143198791D01*
X116151209Y-143045575D01*
X115971045Y-142925193D01*
X115770858Y-142842273D01*
X115558341Y-142800000D01*
X115500293Y-142800000D01*
X115500714Y-142799999D01*
X115558527Y-142794236D01*
X115614805Y-142777164D01*
X115666671Y-142749441D01*
X115712132Y-142712132D01*
X115749441Y-142666671D01*
X115777164Y-142614805D01*
X115794236Y-142558527D01*
X115800000Y-142500000D01*
X115800000Y-138200000D01*
X115797477Y-138161175D01*
X115784187Y-138103886D01*
X115759975Y-138050291D01*
X115725773Y-138002449D01*
X115100000Y-137287280D01*
X115100000Y-134300000D01*
X115097644Y-134262478D01*
X115084605Y-134205132D01*
X115041228Y-134075000D01*
X115852278Y-134075000D01*
X117125000Y-135002577D01*
X117125000Y-136775000D01*
X117130764Y-136833527D01*
X117147836Y-136889805D01*
X117175559Y-136941671D01*
X117212868Y-136987132D01*
X117258329Y-137024441D01*
X117310195Y-137052164D01*
X117366473Y-137069236D01*
X117425000Y-137075000D01*
X120250000Y-137075000D01*
X120308527Y-137069236D01*
X120364805Y-137052164D01*
X120416671Y-137024441D01*
X120462132Y-136987132D01*
X120499441Y-136941671D01*
X120527164Y-136889805D01*
X120544236Y-136833527D01*
X120550000Y-136775000D01*
X120550000Y-132875000D01*
X120544236Y-132816473D01*
X120527164Y-132760195D01*
X120499441Y-132708329D01*
X120462132Y-132662868D01*
X120416671Y-132625559D01*
X120364805Y-132597836D01*
X120308527Y-132580764D01*
X120250000Y-132575000D01*
X114786130Y-132575000D01*
X114775000Y-132562280D01*
X114775000Y-131075000D01*
X114769236Y-131016473D01*
X114752164Y-130960195D01*
X114724441Y-130908329D01*
X114687132Y-130862868D01*
X114641671Y-130825559D01*
X114589805Y-130797836D01*
X114533527Y-130780764D01*
X114475000Y-130775000D01*
X114125000Y-130775000D01*
X114066473Y-130780764D01*
X114050000Y-130785761D01*
X114033527Y-130780764D01*
X113975000Y-130775000D01*
X113625000Y-130775000D01*
X113566473Y-130780764D01*
X113562500Y-130781969D01*
X113558527Y-130780764D01*
X113500000Y-130775000D01*
X113100000Y-130775000D01*
X113041473Y-130780764D01*
X112985195Y-130797836D01*
X112933329Y-130825559D01*
X112887868Y-130862868D01*
X112850559Y-130908329D01*
X112841074Y-130926075D01*
X112828504Y-130884640D01*
X112823351Y-130875000D01*
X112828504Y-130865360D01*
X112845659Y-130808810D01*
X112851451Y-130750000D01*
X112851451Y-130500000D01*
X112845659Y-130441190D01*
X112828504Y-130384640D01*
X112823351Y-130375000D01*
X112828504Y-130365360D01*
X112845659Y-130308810D01*
X112851451Y-130250000D01*
X112851451Y-130000000D01*
X112845659Y-129941190D01*
X112828504Y-129884640D01*
X112823351Y-129875000D01*
X112828504Y-129865360D01*
X112845659Y-129808810D01*
X112851451Y-129750000D01*
X112851451Y-129500000D01*
X115248549Y-129500000D01*
X115248549Y-129750000D01*
X115254341Y-129808810D01*
X115271496Y-129865360D01*
X115276649Y-129875000D01*
X115271496Y-129884640D01*
X115254341Y-129941190D01*
X115248549Y-130000000D01*
X115248549Y-130250000D01*
X115254341Y-130308810D01*
X115271496Y-130365360D01*
X115276649Y-130375000D01*
X115271496Y-130384640D01*
X115254341Y-130441190D01*
X115248549Y-130500000D01*
X115248549Y-130750000D01*
X115254341Y-130808810D01*
X115271496Y-130865360D01*
X115276649Y-130875000D01*
X115271496Y-130884640D01*
X115254341Y-130941190D01*
X115248549Y-131000000D01*
X115248549Y-131250000D01*
X115254341Y-131308810D01*
X115271496Y-131365360D01*
X115299353Y-131417477D01*
X115336842Y-131463158D01*
X115382523Y-131500647D01*
X115434640Y-131528504D01*
X115491190Y-131545659D01*
X115550000Y-131551451D01*
X116350000Y-131551451D01*
X116364733Y-131550000D01*
X116999999Y-131550000D01*
X117023978Y-131607890D01*
X117095112Y-131714351D01*
X117185649Y-131804888D01*
X117292110Y-131876022D01*
X117410402Y-131925021D01*
X117535981Y-131950000D01*
X117664019Y-131950000D01*
X117789598Y-131925021D01*
X117907890Y-131876022D01*
X118014351Y-131804888D01*
X118104888Y-131714351D01*
X118176022Y-131607890D01*
X118225021Y-131489598D01*
X118226496Y-131482181D01*
X118292110Y-131526022D01*
X118410402Y-131575021D01*
X118535981Y-131600000D01*
X118664019Y-131600000D01*
X118789598Y-131575021D01*
X118907890Y-131526022D01*
X119014351Y-131454888D01*
X119104888Y-131364351D01*
X119176022Y-131257890D01*
X119225021Y-131139598D01*
X119250000Y-131014019D01*
X119250000Y-130885981D01*
X119225021Y-130760402D01*
X119176022Y-130642110D01*
X119114477Y-130550000D01*
X121604133Y-130550000D01*
X121625000Y-130552055D01*
X121645867Y-130550000D01*
X121645874Y-130550000D01*
X121708314Y-130543850D01*
X121788427Y-130519548D01*
X121862260Y-130480084D01*
X121926974Y-130426974D01*
X121940283Y-130410757D01*
X122626041Y-129725000D01*
X122924577Y-129725000D01*
X122889823Y-129785195D01*
X122839873Y-129905785D01*
X122819603Y-129981432D01*
X122802566Y-130110842D01*
X122800000Y-130150000D01*
X122800000Y-136300000D01*
X122802566Y-136339158D01*
X122819603Y-136468568D01*
X122839873Y-136544215D01*
X122889823Y-136664805D01*
X122928982Y-136732630D01*
X123008442Y-136836183D01*
X123063817Y-136891558D01*
X123167370Y-136971018D01*
X123235195Y-137010177D01*
X123355785Y-137060127D01*
X123431432Y-137080397D01*
X123560842Y-137097434D01*
X123600000Y-137100000D01*
X126150000Y-137100000D01*
X126189158Y-137097434D01*
X126318568Y-137080397D01*
X126394215Y-137060127D01*
X126514805Y-137010177D01*
X126582630Y-136971018D01*
X126686183Y-136891558D01*
X126741558Y-136836183D01*
X126821018Y-136732630D01*
X126860177Y-136664805D01*
X126910127Y-136544215D01*
X126930397Y-136468568D01*
X126947434Y-136339158D01*
X126950000Y-136300000D01*
X126950000Y-130150000D01*
X126947434Y-130110842D01*
X126930397Y-129981432D01*
X126910127Y-129905785D01*
X126860177Y-129785195D01*
X126821018Y-129717370D01*
X126741558Y-129613817D01*
X126686183Y-129558442D01*
X126582630Y-129478982D01*
X126514805Y-129439823D01*
X126394215Y-129389873D01*
X126318568Y-129369603D01*
X126189158Y-129352566D01*
X126150000Y-129350000D01*
X125298621Y-129350000D01*
X125294548Y-129336572D01*
X125284353Y-129317499D01*
X125255084Y-129262740D01*
X125201974Y-129198026D01*
X125185758Y-129184718D01*
X125015284Y-129014244D01*
X125002443Y-128998597D01*
X125185758Y-128815282D01*
X125201974Y-128801974D01*
X125255084Y-128737260D01*
X125294548Y-128663427D01*
X125298621Y-128650000D01*
X126150000Y-128650000D01*
X126189158Y-128647434D01*
X126318568Y-128630397D01*
X126394215Y-128610127D01*
X126514805Y-128560177D01*
X126582630Y-128521018D01*
X126686183Y-128441558D01*
X126741558Y-128386183D01*
X126821018Y-128282630D01*
X126860177Y-128214805D01*
X126910127Y-128094215D01*
X126930397Y-128018568D01*
X126947434Y-127889158D01*
X126950000Y-127850000D01*
X126950000Y-124606530D01*
X126945463Y-124554555D01*
X126915447Y-124383923D01*
X126904179Y-124339808D01*
X126879972Y-124286211D01*
X126793526Y-124136065D01*
X126763661Y-124093285D01*
X125863384Y-123016866D01*
X125816336Y-122935150D01*
X125800000Y-122842286D01*
X125800000Y-122450000D01*
X125797434Y-122410842D01*
X125780397Y-122281432D01*
X125760127Y-122205785D01*
X125710177Y-122085195D01*
X125671018Y-122017370D01*
X125591558Y-121913817D01*
X125536183Y-121858442D01*
X125432630Y-121778982D01*
X125364805Y-121739823D01*
X125244215Y-121689873D01*
X125168568Y-121669603D01*
X125039158Y-121652566D01*
X125000000Y-121650000D01*
X123400000Y-121650000D01*
X123360842Y-121652566D01*
X123231432Y-121669603D01*
X123155785Y-121689873D01*
X123035195Y-121739823D01*
X122967370Y-121778982D01*
X122863817Y-121858442D01*
X122808442Y-121913817D01*
X122728982Y-122017370D01*
X122689823Y-122085195D01*
X122639873Y-122205785D01*
X122619603Y-122281432D01*
X122602566Y-122410842D01*
X122600000Y-122450000D01*
X122600000Y-127850000D01*
X122602566Y-127889158D01*
X122619603Y-128018568D01*
X122639873Y-128094215D01*
X122689823Y-128214805D01*
X122728982Y-128282630D01*
X122761494Y-128325000D01*
X122270867Y-128325000D01*
X122250000Y-128322945D01*
X122229133Y-128325000D01*
X122229126Y-128325000D01*
X122174327Y-128330397D01*
X122166685Y-128331150D01*
X122086572Y-128355452D01*
X122072936Y-128362741D01*
X122012740Y-128394916D01*
X121971855Y-128428470D01*
X121965708Y-128433515D01*
X121948026Y-128448026D01*
X121934721Y-128464238D01*
X121198960Y-129200000D01*
X116364733Y-129200000D01*
X116350000Y-129198549D01*
X115550000Y-129198549D01*
X115491190Y-129204341D01*
X115434640Y-129221496D01*
X115382523Y-129249353D01*
X115336842Y-129286842D01*
X115299353Y-129332523D01*
X115271496Y-129384640D01*
X115254341Y-129441190D01*
X115248549Y-129500000D01*
X112851451Y-129500000D01*
X112845659Y-129441190D01*
X112828504Y-129384640D01*
X112823351Y-129375000D01*
X112828504Y-129365360D01*
X112845659Y-129308810D01*
X112851451Y-129250000D01*
X112851451Y-129176451D01*
X112925000Y-129176451D01*
X112983810Y-129170659D01*
X113040360Y-129153504D01*
X113050000Y-129148351D01*
X113059640Y-129153504D01*
X113116190Y-129170659D01*
X113175000Y-129176451D01*
X113425000Y-129176451D01*
X113483810Y-129170659D01*
X113540360Y-129153504D01*
X113550000Y-129148351D01*
X113559640Y-129153504D01*
X113616190Y-129170659D01*
X113675000Y-129176451D01*
X113925000Y-129176451D01*
X113983810Y-129170659D01*
X114040360Y-129153504D01*
X114050000Y-129148351D01*
X114059640Y-129153504D01*
X114116190Y-129170659D01*
X114175000Y-129176451D01*
X114425000Y-129176451D01*
X114483810Y-129170659D01*
X114540360Y-129153504D01*
X114550000Y-129148351D01*
X114559640Y-129153504D01*
X114616190Y-129170659D01*
X114675000Y-129176451D01*
X114925000Y-129176451D01*
X114983810Y-129170659D01*
X115040360Y-129153504D01*
X115050000Y-129148351D01*
X115059640Y-129153504D01*
X115116190Y-129170659D01*
X115175000Y-129176451D01*
X115425000Y-129176451D01*
X115483810Y-129170659D01*
X115540360Y-129153504D01*
X115592477Y-129125647D01*
X115638158Y-129088158D01*
X115675647Y-129042477D01*
X115703504Y-128990360D01*
X115720659Y-128933810D01*
X115726451Y-128875000D01*
X115726451Y-128650000D01*
X116186735Y-128650000D01*
X116240044Y-128714956D01*
X116308076Y-128770789D01*
X116385694Y-128812277D01*
X116469914Y-128837825D01*
X116557500Y-128846451D01*
X116852500Y-128846451D01*
X116940086Y-128837825D01*
X117024306Y-128812277D01*
X117101924Y-128770789D01*
X117169956Y-128714956D01*
X117225789Y-128646924D01*
X117267277Y-128569306D01*
X117292825Y-128485086D01*
X117301451Y-128397500D01*
X117301451Y-128052500D01*
X117292825Y-127964914D01*
X117267277Y-127880694D01*
X117225789Y-127803076D01*
X117192489Y-127762500D01*
X117225789Y-127721924D01*
X117267277Y-127644306D01*
X117292825Y-127560086D01*
X117301451Y-127472500D01*
X117301451Y-127127500D01*
X117292825Y-127039914D01*
X117267277Y-126955694D01*
X117225789Y-126878076D01*
X117169956Y-126810044D01*
X117133579Y-126780190D01*
X117139956Y-126774956D01*
X117172747Y-126735000D01*
X117469133Y-126735000D01*
X117490000Y-126737055D01*
X117510867Y-126735000D01*
X117510874Y-126735000D01*
X117573314Y-126728850D01*
X117615698Y-126715993D01*
X117660981Y-126725000D01*
X117789019Y-126725000D01*
X117914598Y-126700021D01*
X118032890Y-126651022D01*
X118139351Y-126579888D01*
X118229888Y-126489351D01*
X118301022Y-126382890D01*
X118350021Y-126264598D01*
X118375000Y-126139019D01*
X118375000Y-126010981D01*
X118350021Y-125885402D01*
X118301022Y-125767110D01*
X118229888Y-125660649D01*
X118139351Y-125570112D01*
X118032890Y-125498978D01*
X117914598Y-125449979D01*
X117789019Y-125425000D01*
X117660981Y-125425000D01*
X117535402Y-125449979D01*
X117417110Y-125498978D01*
X117310649Y-125570112D01*
X117220112Y-125660649D01*
X117148978Y-125767110D01*
X117122597Y-125830798D01*
X117071924Y-125789211D01*
X116994306Y-125747723D01*
X116910086Y-125722175D01*
X116822500Y-125713549D01*
X116477500Y-125713549D01*
X116389914Y-125722175D01*
X116305694Y-125747723D01*
X116228076Y-125789211D01*
X116177500Y-125830718D01*
X116170533Y-125825000D01*
X116194956Y-125804956D01*
X116250789Y-125736924D01*
X116292277Y-125659306D01*
X116317825Y-125575086D01*
X116326451Y-125487500D01*
X116326451Y-125192500D01*
X116317825Y-125104914D01*
X116292277Y-125020694D01*
X116250789Y-124943076D01*
X116194956Y-124875044D01*
X116126924Y-124819211D01*
X116049306Y-124777723D01*
X115965086Y-124752175D01*
X115877500Y-124743549D01*
X115532500Y-124743549D01*
X115444914Y-124752175D01*
X115360694Y-124777723D01*
X115283076Y-124819211D01*
X115215044Y-124875044D01*
X115159211Y-124943076D01*
X115117723Y-125020694D01*
X115092175Y-125104914D01*
X115090781Y-125119070D01*
X115035086Y-125102175D01*
X114947500Y-125093549D01*
X114602500Y-125093549D01*
X114514914Y-125102175D01*
X114430694Y-125127723D01*
X114389732Y-125149618D01*
X114451022Y-125057890D01*
X114500021Y-124939598D01*
X114525000Y-124814019D01*
X114525000Y-124685981D01*
X114500021Y-124560402D01*
X114451022Y-124442110D01*
X114379888Y-124335649D01*
X114289351Y-124245112D01*
X114182890Y-124173978D01*
X114064598Y-124124979D01*
X113939019Y-124100000D01*
X113810981Y-124100000D01*
X113685402Y-124124979D01*
X113567110Y-124173978D01*
X113460649Y-124245112D01*
X113370112Y-124335649D01*
X113298978Y-124442110D01*
X113249979Y-124560402D01*
X113225000Y-124685981D01*
X113225000Y-124814019D01*
X113249979Y-124939598D01*
X113298978Y-125057890D01*
X113370112Y-125164351D01*
X113390386Y-125184625D01*
X113335044Y-125230044D01*
X113279211Y-125298076D01*
X113237723Y-125375694D01*
X113212175Y-125459914D01*
X113203549Y-125547500D01*
X113203549Y-125842500D01*
X113212175Y-125930086D01*
X113237723Y-126014306D01*
X113279211Y-126091924D01*
X113335044Y-126159956D01*
X113359467Y-126180000D01*
X113350000Y-126187770D01*
X113296924Y-126144211D01*
X113219306Y-126102723D01*
X113135086Y-126077175D01*
X113047500Y-126068549D01*
X112702500Y-126068549D01*
X112614914Y-126077175D01*
X112530694Y-126102723D01*
X112453076Y-126144211D01*
X112415546Y-126175011D01*
X112415533Y-126175000D01*
X112439956Y-126154956D01*
X112495789Y-126086924D01*
X112537277Y-126009306D01*
X112562825Y-125925086D01*
X112571451Y-125837500D01*
X112571451Y-125542500D01*
X112562825Y-125454914D01*
X112537277Y-125370694D01*
X112495789Y-125293076D01*
X112441867Y-125227372D01*
X112479888Y-125189351D01*
X112551022Y-125082890D01*
X112600021Y-124964598D01*
X112625000Y-124839019D01*
X112625000Y-124710981D01*
X112600021Y-124585402D01*
X112551022Y-124467110D01*
X112479888Y-124360649D01*
X112389351Y-124270112D01*
X112282890Y-124198978D01*
X112164598Y-124149979D01*
X112039019Y-124125000D01*
X111910981Y-124125000D01*
X111785402Y-124149979D01*
X111667110Y-124198978D01*
X111560649Y-124270112D01*
X111470112Y-124360649D01*
X111398978Y-124467110D01*
X111349979Y-124585402D01*
X111325000Y-124710981D01*
X111325000Y-124839019D01*
X111349979Y-124964598D01*
X111398978Y-125082890D01*
X111470112Y-125189351D01*
X111485178Y-125204417D01*
X111460044Y-125225044D01*
X111404211Y-125293076D01*
X111362723Y-125370694D01*
X111337175Y-125454914D01*
X111328549Y-125542500D01*
X111328549Y-125837500D01*
X111337175Y-125925086D01*
X111362723Y-126009306D01*
X111404211Y-126086924D01*
X111460044Y-126154956D01*
X111484467Y-126175000D01*
X111481092Y-126177770D01*
X111421924Y-126129211D01*
X111344306Y-126087723D01*
X111260086Y-126062175D01*
X111172500Y-126053549D01*
X110827500Y-126053549D01*
X110739914Y-126062175D01*
X110655694Y-126087723D01*
X110578076Y-126129211D01*
X110525000Y-126172770D01*
X110471924Y-126129211D01*
X110394306Y-126087723D01*
X110310086Y-126062175D01*
X110222500Y-126053549D01*
X109877500Y-126053549D01*
X109789914Y-126062175D01*
X109705694Y-126087723D01*
X109628076Y-126129211D01*
X109560044Y-126185044D01*
X109504211Y-126253076D01*
X109462723Y-126330694D01*
X109437175Y-126414914D01*
X109428549Y-126502500D01*
X109428549Y-126652890D01*
X109414019Y-126650000D01*
X109285981Y-126650000D01*
X109160402Y-126674979D01*
X109042110Y-126723978D01*
X108935649Y-126795112D01*
X108845112Y-126885649D01*
X108773978Y-126992110D01*
X108724979Y-127110402D01*
X108700000Y-127235981D01*
X108700000Y-127364019D01*
X108724979Y-127489598D01*
X108773978Y-127607890D01*
X108845112Y-127714351D01*
X108925001Y-127794240D01*
X108925001Y-127939124D01*
X108922945Y-127960000D01*
X108931150Y-128043314D01*
X108952065Y-128112259D01*
X108955453Y-128123427D01*
X108968549Y-128147928D01*
X108968549Y-128347500D01*
X108977175Y-128435086D01*
X109002723Y-128519306D01*
X109044211Y-128596924D01*
X109100044Y-128664956D01*
X109168076Y-128720789D01*
X109245694Y-128762277D01*
X109329914Y-128787825D01*
X109417500Y-128796451D01*
X109712500Y-128796451D01*
X109800086Y-128787825D01*
X109884306Y-128762277D01*
X109961924Y-128720789D01*
X110029956Y-128664956D01*
X110050000Y-128640533D01*
X110057770Y-128650000D01*
X110014211Y-128703076D01*
X109972723Y-128780694D01*
X109947175Y-128864914D01*
X109938549Y-128952500D01*
X109938549Y-129297500D01*
X109947175Y-129385086D01*
X109972723Y-129469306D01*
X110014211Y-129546924D01*
X110057770Y-129600000D01*
X110014211Y-129653076D01*
X109972723Y-129730694D01*
X109947175Y-129814914D01*
X109938549Y-129902500D01*
X109938549Y-130247500D01*
X109947175Y-130335086D01*
X109972723Y-130419306D01*
X110014211Y-130496924D01*
X110047511Y-130537500D01*
X110014211Y-130578076D01*
X109972723Y-130655694D01*
X109947175Y-130739914D01*
X109938549Y-130827500D01*
X109938549Y-131013642D01*
X109623643Y-131328549D01*
X109542500Y-131328549D01*
X109454914Y-131337175D01*
X109370694Y-131362723D01*
X109293076Y-131404211D01*
X109225044Y-131460044D01*
X109171735Y-131525000D01*
X108251041Y-131525000D01*
X107850000Y-131123960D01*
X107850000Y-130628265D01*
X107914956Y-130574956D01*
X107970789Y-130506924D01*
X108012277Y-130429306D01*
X108037825Y-130345086D01*
X108046451Y-130257500D01*
X108046451Y-129962500D01*
X108037825Y-129874914D01*
X108012277Y-129790694D01*
X107970789Y-129713076D01*
X107914956Y-129645044D01*
X107890533Y-129625000D01*
X107914956Y-129604956D01*
X107970789Y-129536924D01*
X108012277Y-129459306D01*
X108037825Y-129375086D01*
X108046451Y-129287500D01*
X108046451Y-128992500D01*
X108037825Y-128904914D01*
X108012277Y-128820694D01*
X107970789Y-128743076D01*
X107930616Y-128694126D01*
X107957736Y-128691455D01*
X108055322Y-128661853D01*
X108145258Y-128613781D01*
X108224088Y-128549088D01*
X108288781Y-128470258D01*
X108336853Y-128380322D01*
X108366455Y-128282736D01*
X108376451Y-128181250D01*
X108376451Y-127743750D01*
X108366455Y-127642264D01*
X108336853Y-127544678D01*
X108288781Y-127454742D01*
X108224088Y-127375912D01*
X108145258Y-127311219D01*
X108055322Y-127263147D01*
X107957736Y-127233545D01*
X107856250Y-127223549D01*
X107343750Y-127223549D01*
X107242264Y-127233545D01*
X107144678Y-127263147D01*
X107054742Y-127311219D01*
X106975912Y-127375912D01*
X106911219Y-127454742D01*
X106868319Y-127535003D01*
X106838781Y-127479742D01*
X106774088Y-127400912D01*
X106695258Y-127336219D01*
X106605322Y-127288147D01*
X106507736Y-127258545D01*
X106406250Y-127248549D01*
X105893750Y-127248549D01*
X105792264Y-127258545D01*
X105694678Y-127288147D01*
X105604742Y-127336219D01*
X105525912Y-127400912D01*
X105461219Y-127479742D01*
X105428341Y-127541253D01*
X105388781Y-127467242D01*
X105324088Y-127388412D01*
X105245258Y-127323719D01*
X105155322Y-127275647D01*
X105057736Y-127246045D01*
X104956250Y-127236049D01*
X104443750Y-127236049D01*
X104342264Y-127246045D01*
X104244678Y-127275647D01*
X104154742Y-127323719D01*
X104075912Y-127388412D01*
X104011219Y-127467242D01*
X103963147Y-127557178D01*
X103933545Y-127654764D01*
X103923549Y-127756250D01*
X103923549Y-128193750D01*
X103933545Y-128295236D01*
X103963147Y-128392822D01*
X104011219Y-128482758D01*
X104075912Y-128561588D01*
X104154742Y-128626281D01*
X104244678Y-128674353D01*
X104342264Y-128703955D01*
X104443750Y-128713951D01*
X104837910Y-128713951D01*
X104940137Y-128816178D01*
X104937723Y-128820694D01*
X104912175Y-128904914D01*
X104903549Y-128992500D01*
X104903549Y-129287500D01*
X104912175Y-129375086D01*
X104937723Y-129459306D01*
X104979211Y-129536924D01*
X105035044Y-129604956D01*
X105059467Y-129625000D01*
X105035044Y-129645044D01*
X104979211Y-129713076D01*
X104937723Y-129790694D01*
X104912175Y-129874914D01*
X104903549Y-129962500D01*
X104903549Y-130257500D01*
X104912175Y-130345086D01*
X104937723Y-130429306D01*
X104979211Y-130506924D01*
X105035044Y-130574956D01*
X105103076Y-130630789D01*
X105180694Y-130672277D01*
X105264914Y-130697825D01*
X105352500Y-130706451D01*
X105697500Y-130706451D01*
X105785086Y-130697825D01*
X105869306Y-130672277D01*
X105946924Y-130630789D01*
X106000000Y-130587230D01*
X106053076Y-130630789D01*
X106130694Y-130672277D01*
X106214914Y-130697825D01*
X106302500Y-130706451D01*
X106647500Y-130706451D01*
X106735086Y-130697825D01*
X106819306Y-130672277D01*
X106896924Y-130630789D01*
X106950000Y-130587230D01*
X107000000Y-130628265D01*
X107000001Y-131279124D01*
X106997945Y-131300000D01*
X107006150Y-131383314D01*
X107027863Y-131454888D01*
X107030453Y-131463427D01*
X107069917Y-131537260D01*
X107084847Y-131555452D01*
X107102919Y-131577472D01*
X107123027Y-131601974D01*
X107139239Y-131615279D01*
X107695857Y-132171898D01*
X104910204Y-132170000D01*
X104851473Y-132175764D01*
X104795195Y-132192836D01*
X104743329Y-132220559D01*
X104697868Y-132257868D01*
X104660559Y-132303329D01*
X104632836Y-132355195D01*
X104615764Y-132411473D01*
X104610000Y-132470000D01*
X104610000Y-132888308D01*
X104588416Y-132925000D01*
X103290000Y-132925000D01*
X103231473Y-132930764D01*
X103175195Y-132947836D01*
X103123329Y-132975559D01*
X103077868Y-133012868D01*
X103040559Y-133058329D01*
X103012836Y-133110195D01*
X102995764Y-133166473D01*
X102990000Y-133225000D01*
X100325000Y-133225000D01*
X100325000Y-126181250D01*
X103923549Y-126181250D01*
X103923549Y-126618750D01*
X103933545Y-126720236D01*
X103963147Y-126817822D01*
X104011219Y-126907758D01*
X104075912Y-126986588D01*
X104154742Y-127051281D01*
X104244678Y-127099353D01*
X104342264Y-127128955D01*
X104443750Y-127138951D01*
X104956250Y-127138951D01*
X105057736Y-127128955D01*
X105155322Y-127099353D01*
X105245258Y-127051281D01*
X105324088Y-126986588D01*
X105388781Y-126907758D01*
X105421659Y-126846247D01*
X105461219Y-126920258D01*
X105525912Y-126999088D01*
X105604742Y-127063781D01*
X105694678Y-127111853D01*
X105792264Y-127141455D01*
X105893750Y-127151451D01*
X106406250Y-127151451D01*
X106507736Y-127141455D01*
X106605322Y-127111853D01*
X106695258Y-127063781D01*
X106774088Y-126999088D01*
X106838781Y-126920258D01*
X106881681Y-126839997D01*
X106911219Y-126895258D01*
X106975912Y-126974088D01*
X107054742Y-127038781D01*
X107144678Y-127086853D01*
X107242264Y-127116455D01*
X107343750Y-127126451D01*
X107856250Y-127126451D01*
X107957736Y-127116455D01*
X108055322Y-127086853D01*
X108145258Y-127038781D01*
X108224088Y-126974088D01*
X108288781Y-126895258D01*
X108336853Y-126805322D01*
X108366455Y-126707736D01*
X108376451Y-126606250D01*
X108376451Y-126168750D01*
X108366455Y-126067264D01*
X108336853Y-125969678D01*
X108288781Y-125879742D01*
X108224088Y-125800912D01*
X108145258Y-125736219D01*
X108055322Y-125688147D01*
X108025000Y-125678949D01*
X108025000Y-124194239D01*
X108104888Y-124114351D01*
X108176022Y-124007890D01*
X108225021Y-123889598D01*
X108250000Y-123764019D01*
X108250000Y-123635981D01*
X108225021Y-123510402D01*
X108176022Y-123392110D01*
X108104888Y-123285649D01*
X108014351Y-123195112D01*
X107907890Y-123123978D01*
X107789598Y-123074979D01*
X107664019Y-123050000D01*
X107535981Y-123050000D01*
X107410402Y-123074979D01*
X107292110Y-123123978D01*
X107185649Y-123195112D01*
X107095112Y-123285649D01*
X107023978Y-123392110D01*
X106974979Y-123510402D01*
X106950000Y-123635981D01*
X106950000Y-123764019D01*
X106974979Y-123889598D01*
X107023978Y-124007890D01*
X107095112Y-124114351D01*
X107175000Y-124194239D01*
X107175001Y-125678949D01*
X107144678Y-125688147D01*
X107054742Y-125736219D01*
X106975912Y-125800912D01*
X106911219Y-125879742D01*
X106868319Y-125960003D01*
X106838781Y-125904742D01*
X106774088Y-125825912D01*
X106695258Y-125761219D01*
X106625000Y-125723665D01*
X106625000Y-125494239D01*
X106704888Y-125414351D01*
X106776022Y-125307890D01*
X106825021Y-125189598D01*
X106850000Y-125064019D01*
X106850000Y-124935981D01*
X106825021Y-124810402D01*
X106776022Y-124692110D01*
X106704888Y-124585649D01*
X106614351Y-124495112D01*
X106507890Y-124423978D01*
X106389598Y-124374979D01*
X106264019Y-124350000D01*
X106135981Y-124350000D01*
X106010402Y-124374979D01*
X105892110Y-124423978D01*
X105785649Y-124495112D01*
X105695112Y-124585649D01*
X105623978Y-124692110D01*
X105574979Y-124810402D01*
X105550000Y-124935981D01*
X105550000Y-125064019D01*
X105574979Y-125189598D01*
X105623978Y-125307890D01*
X105695112Y-125414351D01*
X105775000Y-125494239D01*
X105775001Y-125688782D01*
X105694678Y-125713147D01*
X105604742Y-125761219D01*
X105525912Y-125825912D01*
X105461219Y-125904742D01*
X105428341Y-125966253D01*
X105388781Y-125892242D01*
X105324088Y-125813412D01*
X105245258Y-125748719D01*
X105155322Y-125700647D01*
X105125000Y-125691449D01*
X105125000Y-125494239D01*
X105204888Y-125414351D01*
X105276022Y-125307890D01*
X105325021Y-125189598D01*
X105350000Y-125064019D01*
X105350000Y-124935981D01*
X105325021Y-124810402D01*
X105276022Y-124692110D01*
X105204888Y-124585649D01*
X105114351Y-124495112D01*
X105007890Y-124423978D01*
X104889598Y-124374979D01*
X104764019Y-124350000D01*
X104635981Y-124350000D01*
X104510402Y-124374979D01*
X104392110Y-124423978D01*
X104285649Y-124495112D01*
X104195112Y-124585649D01*
X104123978Y-124692110D01*
X104074979Y-124810402D01*
X104050000Y-124935981D01*
X104050000Y-125064019D01*
X104074979Y-125189598D01*
X104123978Y-125307890D01*
X104195112Y-125414351D01*
X104275000Y-125494239D01*
X104275000Y-125691449D01*
X104244678Y-125700647D01*
X104154742Y-125748719D01*
X104075912Y-125813412D01*
X104011219Y-125892242D01*
X103963147Y-125982178D01*
X103933545Y-126079764D01*
X103923549Y-126181250D01*
X100325000Y-126181250D01*
X100325000Y-122015897D01*
X100358429Y-121674960D01*
X100452827Y-121362301D01*
X100606156Y-121073932D01*
X100812578Y-120820833D01*
X101064223Y-120612655D01*
X101351518Y-120457315D01*
X101663508Y-120360739D01*
X102003540Y-120325000D01*
X127984103Y-120325000D01*
X128325040Y-120358429D01*
G37*
X128325040Y-120358429D02*
X128637699Y-120452827D01*
X128926068Y-120606156D01*
X129179167Y-120812578D01*
X129387345Y-121064223D01*
X129542685Y-121351518D01*
X129639261Y-121663508D01*
X129675000Y-122003540D01*
X129675001Y-147984093D01*
X129641571Y-148325041D01*
X129547173Y-148637700D01*
X129393843Y-148926070D01*
X129187422Y-149179167D01*
X128935780Y-149387344D01*
X128648481Y-149542685D01*
X128336497Y-149639260D01*
X127996460Y-149675000D01*
X102015897Y-149675000D01*
X101674959Y-149641571D01*
X101362300Y-149547173D01*
X101073930Y-149393843D01*
X100820833Y-149187422D01*
X100612656Y-148935780D01*
X100457315Y-148648481D01*
X100360740Y-148336497D01*
X100325000Y-147996460D01*
X100325000Y-133225000D01*
X102990000Y-133225000D01*
X102990000Y-133775000D01*
X102995764Y-133833527D01*
X103012836Y-133889805D01*
X103033549Y-133928556D01*
X103033549Y-134375000D01*
X103039341Y-134433810D01*
X103051836Y-134475000D01*
X103039341Y-134516190D01*
X103033549Y-134575000D01*
X103033549Y-135025000D01*
X103039341Y-135083810D01*
X103051836Y-135125000D01*
X103039341Y-135166190D01*
X103033549Y-135225000D01*
X103033549Y-135675000D01*
X103039341Y-135733810D01*
X103056496Y-135790360D01*
X103084353Y-135842477D01*
X103121842Y-135888158D01*
X103167523Y-135925647D01*
X103219640Y-135953504D01*
X103276190Y-135970659D01*
X103335000Y-135976451D01*
X104715000Y-135976451D01*
X104773810Y-135970659D01*
X104830360Y-135953504D01*
X104882477Y-135925647D01*
X104928158Y-135888158D01*
X104965647Y-135842477D01*
X104993504Y-135790360D01*
X105010659Y-135733810D01*
X105016451Y-135675000D01*
X105016451Y-135370116D01*
X109499673Y-135375000D01*
X109578935Y-135364429D01*
X109633883Y-135343468D01*
X109683686Y-135312190D01*
X109726430Y-135271797D01*
X109760473Y-135223842D01*
X110074097Y-134675000D01*
X112925000Y-134675000D01*
X112925000Y-136161699D01*
X112369575Y-136429835D01*
X112333329Y-136450559D01*
X112287868Y-136487868D01*
X112250559Y-136533329D01*
X112222836Y-136585195D01*
X112205764Y-136641473D01*
X112200000Y-136700000D01*
X112200000Y-139515875D01*
X111193740Y-141169016D01*
X111172836Y-141210195D01*
X111155764Y-141266473D01*
X111150000Y-141325000D01*
X111150000Y-145450000D01*
X111155764Y-145508527D01*
X111172836Y-145564805D01*
X111200559Y-145616671D01*
X111237868Y-145662132D01*
X111283329Y-145699441D01*
X111335195Y-145727164D01*
X111391473Y-145744236D01*
X111450000Y-145750000D01*
X114250000Y-145750000D01*
X114308527Y-145744236D01*
X114364805Y-145727164D01*
X114416671Y-145699441D01*
X114462132Y-145662132D01*
X114499441Y-145616671D01*
X114527164Y-145564805D01*
X114544236Y-145508527D01*
X114550000Y-145450000D01*
X114550000Y-144533001D01*
X114595575Y-144601209D01*
X114748791Y-144754425D01*
X114928955Y-144874807D01*
X115129142Y-144957727D01*
X115341659Y-145000000D01*
X115558341Y-145000000D01*
X115770858Y-144957727D01*
X115971045Y-144874807D01*
X116151209Y-144754425D01*
X116304425Y-144601209D01*
X116424807Y-144421045D01*
X116450000Y-144360224D01*
X116475193Y-144421045D01*
X116595575Y-144601209D01*
X116748791Y-144754425D01*
X116928955Y-144874807D01*
X117129142Y-144957727D01*
X117341659Y-145000000D01*
X117558341Y-145000000D01*
X117770858Y-144957727D01*
X117971045Y-144874807D01*
X118151209Y-144754425D01*
X118304425Y-144601209D01*
X118424807Y-144421045D01*
X118507727Y-144220858D01*
X118550000Y-144008341D01*
X118550000Y-143791659D01*
X118507727Y-143579142D01*
X118424807Y-143378955D01*
X118304425Y-143198791D01*
X118151209Y-143045575D01*
X117971045Y-142925193D01*
X117770858Y-142842273D01*
X117558341Y-142800000D01*
X117341659Y-142800000D01*
X117129142Y-142842273D01*
X116928955Y-142925193D01*
X116748791Y-143045575D01*
X116595575Y-143198791D01*
X116475193Y-143378955D01*
X116450000Y-143439776D01*
X116424807Y-143378955D01*
X116304425Y-143198791D01*
X116151209Y-143045575D01*
X115971045Y-142925193D01*
X115770858Y-142842273D01*
X115558341Y-142800000D01*
X115500293Y-142800000D01*
X115500714Y-142799999D01*
X115558527Y-142794236D01*
X115614805Y-142777164D01*
X115666671Y-142749441D01*
X115712132Y-142712132D01*
X115749441Y-142666671D01*
X115777164Y-142614805D01*
X115794236Y-142558527D01*
X115800000Y-142500000D01*
X115800000Y-138200000D01*
X115797477Y-138161175D01*
X115784187Y-138103886D01*
X115759975Y-138050291D01*
X115725773Y-138002449D01*
X115100000Y-137287280D01*
X115100000Y-134300000D01*
X115097644Y-134262478D01*
X115084605Y-134205132D01*
X115041228Y-134075000D01*
X115852278Y-134075000D01*
X117125000Y-135002577D01*
X117125000Y-136775000D01*
X117130764Y-136833527D01*
X117147836Y-136889805D01*
X117175559Y-136941671D01*
X117212868Y-136987132D01*
X117258329Y-137024441D01*
X117310195Y-137052164D01*
X117366473Y-137069236D01*
X117425000Y-137075000D01*
X120250000Y-137075000D01*
X120308527Y-137069236D01*
X120364805Y-137052164D01*
X120416671Y-137024441D01*
X120462132Y-136987132D01*
X120499441Y-136941671D01*
X120527164Y-136889805D01*
X120544236Y-136833527D01*
X120550000Y-136775000D01*
X120550000Y-132875000D01*
X120544236Y-132816473D01*
X120527164Y-132760195D01*
X120499441Y-132708329D01*
X120462132Y-132662868D01*
X120416671Y-132625559D01*
X120364805Y-132597836D01*
X120308527Y-132580764D01*
X120250000Y-132575000D01*
X114786130Y-132575000D01*
X114775000Y-132562280D01*
X114775000Y-131075000D01*
X114769236Y-131016473D01*
X114752164Y-130960195D01*
X114724441Y-130908329D01*
X114687132Y-130862868D01*
X114641671Y-130825559D01*
X114589805Y-130797836D01*
X114533527Y-130780764D01*
X114475000Y-130775000D01*
X114125000Y-130775000D01*
X114066473Y-130780764D01*
X114050000Y-130785761D01*
X114033527Y-130780764D01*
X113975000Y-130775000D01*
X113625000Y-130775000D01*
X113566473Y-130780764D01*
X113562500Y-130781969D01*
X113558527Y-130780764D01*
X113500000Y-130775000D01*
X113100000Y-130775000D01*
X113041473Y-130780764D01*
X112985195Y-130797836D01*
X112933329Y-130825559D01*
X112887868Y-130862868D01*
X112850559Y-130908329D01*
X112841074Y-130926075D01*
X112828504Y-130884640D01*
X112823351Y-130875000D01*
X112828504Y-130865360D01*
X112845659Y-130808810D01*
X112851451Y-130750000D01*
X112851451Y-130500000D01*
X112845659Y-130441190D01*
X112828504Y-130384640D01*
X112823351Y-130375000D01*
X112828504Y-130365360D01*
X112845659Y-130308810D01*
X112851451Y-130250000D01*
X112851451Y-130000000D01*
X112845659Y-129941190D01*
X112828504Y-129884640D01*
X112823351Y-129875000D01*
X112828504Y-129865360D01*
X112845659Y-129808810D01*
X112851451Y-129750000D01*
X112851451Y-129500000D01*
X115248549Y-129500000D01*
X115248549Y-129750000D01*
X115254341Y-129808810D01*
X115271496Y-129865360D01*
X115276649Y-129875000D01*
X115271496Y-129884640D01*
X115254341Y-129941190D01*
X115248549Y-130000000D01*
X115248549Y-130250000D01*
X115254341Y-130308810D01*
X115271496Y-130365360D01*
X115276649Y-130375000D01*
X115271496Y-130384640D01*
X115254341Y-130441190D01*
X115248549Y-130500000D01*
X115248549Y-130750000D01*
X115254341Y-130808810D01*
X115271496Y-130865360D01*
X115276649Y-130875000D01*
X115271496Y-130884640D01*
X115254341Y-130941190D01*
X115248549Y-131000000D01*
X115248549Y-131250000D01*
X115254341Y-131308810D01*
X115271496Y-131365360D01*
X115299353Y-131417477D01*
X115336842Y-131463158D01*
X115382523Y-131500647D01*
X115434640Y-131528504D01*
X115491190Y-131545659D01*
X115550000Y-131551451D01*
X116350000Y-131551451D01*
X116364733Y-131550000D01*
X116999999Y-131550000D01*
X117023978Y-131607890D01*
X117095112Y-131714351D01*
X117185649Y-131804888D01*
X117292110Y-131876022D01*
X117410402Y-131925021D01*
X117535981Y-131950000D01*
X117664019Y-131950000D01*
X117789598Y-131925021D01*
X117907890Y-131876022D01*
X118014351Y-131804888D01*
X118104888Y-131714351D01*
X118176022Y-131607890D01*
X118225021Y-131489598D01*
X118226496Y-131482181D01*
X118292110Y-131526022D01*
X118410402Y-131575021D01*
X118535981Y-131600000D01*
X118664019Y-131600000D01*
X118789598Y-131575021D01*
X118907890Y-131526022D01*
X119014351Y-131454888D01*
X119104888Y-131364351D01*
X119176022Y-131257890D01*
X119225021Y-131139598D01*
X119250000Y-131014019D01*
X119250000Y-130885981D01*
X119225021Y-130760402D01*
X119176022Y-130642110D01*
X119114477Y-130550000D01*
X121604133Y-130550000D01*
X121625000Y-130552055D01*
X121645867Y-130550000D01*
X121645874Y-130550000D01*
X121708314Y-130543850D01*
X121788427Y-130519548D01*
X121862260Y-130480084D01*
X121926974Y-130426974D01*
X121940283Y-130410757D01*
X122626041Y-129725000D01*
X122924577Y-129725000D01*
X122889823Y-129785195D01*
X122839873Y-129905785D01*
X122819603Y-129981432D01*
X122802566Y-130110842D01*
X122800000Y-130150000D01*
X122800000Y-136300000D01*
X122802566Y-136339158D01*
X122819603Y-136468568D01*
X122839873Y-136544215D01*
X122889823Y-136664805D01*
X122928982Y-136732630D01*
X123008442Y-136836183D01*
X123063817Y-136891558D01*
X123167370Y-136971018D01*
X123235195Y-137010177D01*
X123355785Y-137060127D01*
X123431432Y-137080397D01*
X123560842Y-137097434D01*
X123600000Y-137100000D01*
X126150000Y-137100000D01*
X126189158Y-137097434D01*
X126318568Y-137080397D01*
X126394215Y-137060127D01*
X126514805Y-137010177D01*
X126582630Y-136971018D01*
X126686183Y-136891558D01*
X126741558Y-136836183D01*
X126821018Y-136732630D01*
X126860177Y-136664805D01*
X126910127Y-136544215D01*
X126930397Y-136468568D01*
X126947434Y-136339158D01*
X126950000Y-136300000D01*
X126950000Y-130150000D01*
X126947434Y-130110842D01*
X126930397Y-129981432D01*
X126910127Y-129905785D01*
X126860177Y-129785195D01*
X126821018Y-129717370D01*
X126741558Y-129613817D01*
X126686183Y-129558442D01*
X126582630Y-129478982D01*
X126514805Y-129439823D01*
X126394215Y-129389873D01*
X126318568Y-129369603D01*
X126189158Y-129352566D01*
X126150000Y-129350000D01*
X125298621Y-129350000D01*
X125294548Y-129336572D01*
X125284353Y-129317499D01*
X125255084Y-129262740D01*
X125201974Y-129198026D01*
X125185758Y-129184718D01*
X125015284Y-129014244D01*
X125002443Y-128998597D01*
X125185758Y-128815282D01*
X125201974Y-128801974D01*
X125255084Y-128737260D01*
X125294548Y-128663427D01*
X125298621Y-128650000D01*
X126150000Y-128650000D01*
X126189158Y-128647434D01*
X126318568Y-128630397D01*
X126394215Y-128610127D01*
X126514805Y-128560177D01*
X126582630Y-128521018D01*
X126686183Y-128441558D01*
X126741558Y-128386183D01*
X126821018Y-128282630D01*
X126860177Y-128214805D01*
X126910127Y-128094215D01*
X126930397Y-128018568D01*
X126947434Y-127889158D01*
X126950000Y-127850000D01*
X126950000Y-124606530D01*
X126945463Y-124554555D01*
X126915447Y-124383923D01*
X126904179Y-124339808D01*
X126879972Y-124286211D01*
X126793526Y-124136065D01*
X126763661Y-124093285D01*
X125863384Y-123016866D01*
X125816336Y-122935150D01*
X125800000Y-122842286D01*
X125800000Y-122450000D01*
X125797434Y-122410842D01*
X125780397Y-122281432D01*
X125760127Y-122205785D01*
X125710177Y-122085195D01*
X125671018Y-122017370D01*
X125591558Y-121913817D01*
X125536183Y-121858442D01*
X125432630Y-121778982D01*
X125364805Y-121739823D01*
X125244215Y-121689873D01*
X125168568Y-121669603D01*
X125039158Y-121652566D01*
X125000000Y-121650000D01*
X123400000Y-121650000D01*
X123360842Y-121652566D01*
X123231432Y-121669603D01*
X123155785Y-121689873D01*
X123035195Y-121739823D01*
X122967370Y-121778982D01*
X122863817Y-121858442D01*
X122808442Y-121913817D01*
X122728982Y-122017370D01*
X122689823Y-122085195D01*
X122639873Y-122205785D01*
X122619603Y-122281432D01*
X122602566Y-122410842D01*
X122600000Y-122450000D01*
X122600000Y-127850000D01*
X122602566Y-127889158D01*
X122619603Y-128018568D01*
X122639873Y-128094215D01*
X122689823Y-128214805D01*
X122728982Y-128282630D01*
X122761494Y-128325000D01*
X122270867Y-128325000D01*
X122250000Y-128322945D01*
X122229133Y-128325000D01*
X122229126Y-128325000D01*
X122174327Y-128330397D01*
X122166685Y-128331150D01*
X122086572Y-128355452D01*
X122072936Y-128362741D01*
X122012740Y-128394916D01*
X121971855Y-128428470D01*
X121965708Y-128433515D01*
X121948026Y-128448026D01*
X121934721Y-128464238D01*
X121198960Y-129200000D01*
X116364733Y-129200000D01*
X116350000Y-129198549D01*
X115550000Y-129198549D01*
X115491190Y-129204341D01*
X115434640Y-129221496D01*
X115382523Y-129249353D01*
X115336842Y-129286842D01*
X115299353Y-129332523D01*
X115271496Y-129384640D01*
X115254341Y-129441190D01*
X115248549Y-129500000D01*
X112851451Y-129500000D01*
X112845659Y-129441190D01*
X112828504Y-129384640D01*
X112823351Y-129375000D01*
X112828504Y-129365360D01*
X112845659Y-129308810D01*
X112851451Y-129250000D01*
X112851451Y-129176451D01*
X112925000Y-129176451D01*
X112983810Y-129170659D01*
X113040360Y-129153504D01*
X113050000Y-129148351D01*
X113059640Y-129153504D01*
X113116190Y-129170659D01*
X113175000Y-129176451D01*
X113425000Y-129176451D01*
X113483810Y-129170659D01*
X113540360Y-129153504D01*
X113550000Y-129148351D01*
X113559640Y-129153504D01*
X113616190Y-129170659D01*
X113675000Y-129176451D01*
X113925000Y-129176451D01*
X113983810Y-129170659D01*
X114040360Y-129153504D01*
X114050000Y-129148351D01*
X114059640Y-129153504D01*
X114116190Y-129170659D01*
X114175000Y-129176451D01*
X114425000Y-129176451D01*
X114483810Y-129170659D01*
X114540360Y-129153504D01*
X114550000Y-129148351D01*
X114559640Y-129153504D01*
X114616190Y-129170659D01*
X114675000Y-129176451D01*
X114925000Y-129176451D01*
X114983810Y-129170659D01*
X115040360Y-129153504D01*
X115050000Y-129148351D01*
X115059640Y-129153504D01*
X115116190Y-129170659D01*
X115175000Y-129176451D01*
X115425000Y-129176451D01*
X115483810Y-129170659D01*
X115540360Y-129153504D01*
X115592477Y-129125647D01*
X115638158Y-129088158D01*
X115675647Y-129042477D01*
X115703504Y-128990360D01*
X115720659Y-128933810D01*
X115726451Y-128875000D01*
X115726451Y-128650000D01*
X116186735Y-128650000D01*
X116240044Y-128714956D01*
X116308076Y-128770789D01*
X116385694Y-128812277D01*
X116469914Y-128837825D01*
X116557500Y-128846451D01*
X116852500Y-128846451D01*
X116940086Y-128837825D01*
X117024306Y-128812277D01*
X117101924Y-128770789D01*
X117169956Y-128714956D01*
X117225789Y-128646924D01*
X117267277Y-128569306D01*
X117292825Y-128485086D01*
X117301451Y-128397500D01*
X117301451Y-128052500D01*
X117292825Y-127964914D01*
X117267277Y-127880694D01*
X117225789Y-127803076D01*
X117192489Y-127762500D01*
X117225789Y-127721924D01*
X117267277Y-127644306D01*
X117292825Y-127560086D01*
X117301451Y-127472500D01*
X117301451Y-127127500D01*
X117292825Y-127039914D01*
X117267277Y-126955694D01*
X117225789Y-126878076D01*
X117169956Y-126810044D01*
X117133579Y-126780190D01*
X117139956Y-126774956D01*
X117172747Y-126735000D01*
X117469133Y-126735000D01*
X117490000Y-126737055D01*
X117510867Y-126735000D01*
X117510874Y-126735000D01*
X117573314Y-126728850D01*
X117615698Y-126715993D01*
X117660981Y-126725000D01*
X117789019Y-126725000D01*
X117914598Y-126700021D01*
X118032890Y-126651022D01*
X118139351Y-126579888D01*
X118229888Y-126489351D01*
X118301022Y-126382890D01*
X118350021Y-126264598D01*
X118375000Y-126139019D01*
X118375000Y-126010981D01*
X118350021Y-125885402D01*
X118301022Y-125767110D01*
X118229888Y-125660649D01*
X118139351Y-125570112D01*
X118032890Y-125498978D01*
X117914598Y-125449979D01*
X117789019Y-125425000D01*
X117660981Y-125425000D01*
X117535402Y-125449979D01*
X117417110Y-125498978D01*
X117310649Y-125570112D01*
X117220112Y-125660649D01*
X117148978Y-125767110D01*
X117122597Y-125830798D01*
X117071924Y-125789211D01*
X116994306Y-125747723D01*
X116910086Y-125722175D01*
X116822500Y-125713549D01*
X116477500Y-125713549D01*
X116389914Y-125722175D01*
X116305694Y-125747723D01*
X116228076Y-125789211D01*
X116177500Y-125830718D01*
X116170533Y-125825000D01*
X116194956Y-125804956D01*
X116250789Y-125736924D01*
X116292277Y-125659306D01*
X116317825Y-125575086D01*
X116326451Y-125487500D01*
X116326451Y-125192500D01*
X116317825Y-125104914D01*
X116292277Y-125020694D01*
X116250789Y-124943076D01*
X116194956Y-124875044D01*
X116126924Y-124819211D01*
X116049306Y-124777723D01*
X115965086Y-124752175D01*
X115877500Y-124743549D01*
X115532500Y-124743549D01*
X115444914Y-124752175D01*
X115360694Y-124777723D01*
X115283076Y-124819211D01*
X115215044Y-124875044D01*
X115159211Y-124943076D01*
X115117723Y-125020694D01*
X115092175Y-125104914D01*
X115090781Y-125119070D01*
X115035086Y-125102175D01*
X114947500Y-125093549D01*
X114602500Y-125093549D01*
X114514914Y-125102175D01*
X114430694Y-125127723D01*
X114389732Y-125149618D01*
X114451022Y-125057890D01*
X114500021Y-124939598D01*
X114525000Y-124814019D01*
X114525000Y-124685981D01*
X114500021Y-124560402D01*
X114451022Y-124442110D01*
X114379888Y-124335649D01*
X114289351Y-124245112D01*
X114182890Y-124173978D01*
X114064598Y-124124979D01*
X113939019Y-124100000D01*
X113810981Y-124100000D01*
X113685402Y-124124979D01*
X113567110Y-124173978D01*
X113460649Y-124245112D01*
X113370112Y-124335649D01*
X113298978Y-124442110D01*
X113249979Y-124560402D01*
X113225000Y-124685981D01*
X113225000Y-124814019D01*
X113249979Y-124939598D01*
X113298978Y-125057890D01*
X113370112Y-125164351D01*
X113390386Y-125184625D01*
X113335044Y-125230044D01*
X113279211Y-125298076D01*
X113237723Y-125375694D01*
X113212175Y-125459914D01*
X113203549Y-125547500D01*
X113203549Y-125842500D01*
X113212175Y-125930086D01*
X113237723Y-126014306D01*
X113279211Y-126091924D01*
X113335044Y-126159956D01*
X113359467Y-126180000D01*
X113350000Y-126187770D01*
X113296924Y-126144211D01*
X113219306Y-126102723D01*
X113135086Y-126077175D01*
X113047500Y-126068549D01*
X112702500Y-126068549D01*
X112614914Y-126077175D01*
X112530694Y-126102723D01*
X112453076Y-126144211D01*
X112415546Y-126175011D01*
X112415533Y-126175000D01*
X112439956Y-126154956D01*
X112495789Y-126086924D01*
X112537277Y-126009306D01*
X112562825Y-125925086D01*
X112571451Y-125837500D01*
X112571451Y-125542500D01*
X112562825Y-125454914D01*
X112537277Y-125370694D01*
X112495789Y-125293076D01*
X112441867Y-125227372D01*
X112479888Y-125189351D01*
X112551022Y-125082890D01*
X112600021Y-124964598D01*
X112625000Y-124839019D01*
X112625000Y-124710981D01*
X112600021Y-124585402D01*
X112551022Y-124467110D01*
X112479888Y-124360649D01*
X112389351Y-124270112D01*
X112282890Y-124198978D01*
X112164598Y-124149979D01*
X112039019Y-124125000D01*
X111910981Y-124125000D01*
X111785402Y-124149979D01*
X111667110Y-124198978D01*
X111560649Y-124270112D01*
X111470112Y-124360649D01*
X111398978Y-124467110D01*
X111349979Y-124585402D01*
X111325000Y-124710981D01*
X111325000Y-124839019D01*
X111349979Y-124964598D01*
X111398978Y-125082890D01*
X111470112Y-125189351D01*
X111485178Y-125204417D01*
X111460044Y-125225044D01*
X111404211Y-125293076D01*
X111362723Y-125370694D01*
X111337175Y-125454914D01*
X111328549Y-125542500D01*
X111328549Y-125837500D01*
X111337175Y-125925086D01*
X111362723Y-126009306D01*
X111404211Y-126086924D01*
X111460044Y-126154956D01*
X111484467Y-126175000D01*
X111481092Y-126177770D01*
X111421924Y-126129211D01*
X111344306Y-126087723D01*
X111260086Y-126062175D01*
X111172500Y-126053549D01*
X110827500Y-126053549D01*
X110739914Y-126062175D01*
X110655694Y-126087723D01*
X110578076Y-126129211D01*
X110525000Y-126172770D01*
X110471924Y-126129211D01*
X110394306Y-126087723D01*
X110310086Y-126062175D01*
X110222500Y-126053549D01*
X109877500Y-126053549D01*
X109789914Y-126062175D01*
X109705694Y-126087723D01*
X109628076Y-126129211D01*
X109560044Y-126185044D01*
X109504211Y-126253076D01*
X109462723Y-126330694D01*
X109437175Y-126414914D01*
X109428549Y-126502500D01*
X109428549Y-126652890D01*
X109414019Y-126650000D01*
X109285981Y-126650000D01*
X109160402Y-126674979D01*
X109042110Y-126723978D01*
X108935649Y-126795112D01*
X108845112Y-126885649D01*
X108773978Y-126992110D01*
X108724979Y-127110402D01*
X108700000Y-127235981D01*
X108700000Y-127364019D01*
X108724979Y-127489598D01*
X108773978Y-127607890D01*
X108845112Y-127714351D01*
X108925001Y-127794240D01*
X108925001Y-127939124D01*
X108922945Y-127960000D01*
X108931150Y-128043314D01*
X108952065Y-128112259D01*
X108955453Y-128123427D01*
X108968549Y-128147928D01*
X108968549Y-128347500D01*
X108977175Y-128435086D01*
X109002723Y-128519306D01*
X109044211Y-128596924D01*
X109100044Y-128664956D01*
X109168076Y-128720789D01*
X109245694Y-128762277D01*
X109329914Y-128787825D01*
X109417500Y-128796451D01*
X109712500Y-128796451D01*
X109800086Y-128787825D01*
X109884306Y-128762277D01*
X109961924Y-128720789D01*
X110029956Y-128664956D01*
X110050000Y-128640533D01*
X110057770Y-128650000D01*
X110014211Y-128703076D01*
X109972723Y-128780694D01*
X109947175Y-128864914D01*
X109938549Y-128952500D01*
X109938549Y-129297500D01*
X109947175Y-129385086D01*
X109972723Y-129469306D01*
X110014211Y-129546924D01*
X110057770Y-129600000D01*
X110014211Y-129653076D01*
X109972723Y-129730694D01*
X109947175Y-129814914D01*
X109938549Y-129902500D01*
X109938549Y-130247500D01*
X109947175Y-130335086D01*
X109972723Y-130419306D01*
X110014211Y-130496924D01*
X110047511Y-130537500D01*
X110014211Y-130578076D01*
X109972723Y-130655694D01*
X109947175Y-130739914D01*
X109938549Y-130827500D01*
X109938549Y-131013642D01*
X109623643Y-131328549D01*
X109542500Y-131328549D01*
X109454914Y-131337175D01*
X109370694Y-131362723D01*
X109293076Y-131404211D01*
X109225044Y-131460044D01*
X109171735Y-131525000D01*
X108251041Y-131525000D01*
X107850000Y-131123960D01*
X107850000Y-130628265D01*
X107914956Y-130574956D01*
X107970789Y-130506924D01*
X108012277Y-130429306D01*
X108037825Y-130345086D01*
X108046451Y-130257500D01*
X108046451Y-129962500D01*
X108037825Y-129874914D01*
X108012277Y-129790694D01*
X107970789Y-129713076D01*
X107914956Y-129645044D01*
X107890533Y-129625000D01*
X107914956Y-129604956D01*
X107970789Y-129536924D01*
X108012277Y-129459306D01*
X108037825Y-129375086D01*
X108046451Y-129287500D01*
X108046451Y-128992500D01*
X108037825Y-128904914D01*
X108012277Y-128820694D01*
X107970789Y-128743076D01*
X107930616Y-128694126D01*
X107957736Y-128691455D01*
X108055322Y-128661853D01*
X108145258Y-128613781D01*
X108224088Y-128549088D01*
X108288781Y-128470258D01*
X108336853Y-128380322D01*
X108366455Y-128282736D01*
X108376451Y-128181250D01*
X108376451Y-127743750D01*
X108366455Y-127642264D01*
X108336853Y-127544678D01*
X108288781Y-127454742D01*
X108224088Y-127375912D01*
X108145258Y-127311219D01*
X108055322Y-127263147D01*
X107957736Y-127233545D01*
X107856250Y-127223549D01*
X107343750Y-127223549D01*
X107242264Y-127233545D01*
X107144678Y-127263147D01*
X107054742Y-127311219D01*
X106975912Y-127375912D01*
X106911219Y-127454742D01*
X106868319Y-127535003D01*
X106838781Y-127479742D01*
X106774088Y-127400912D01*
X106695258Y-127336219D01*
X106605322Y-127288147D01*
X106507736Y-127258545D01*
X106406250Y-127248549D01*
X105893750Y-127248549D01*
X105792264Y-127258545D01*
X105694678Y-127288147D01*
X105604742Y-127336219D01*
X105525912Y-127400912D01*
X105461219Y-127479742D01*
X105428341Y-127541253D01*
X105388781Y-127467242D01*
X105324088Y-127388412D01*
X105245258Y-127323719D01*
X105155322Y-127275647D01*
X105057736Y-127246045D01*
X104956250Y-127236049D01*
X104443750Y-127236049D01*
X104342264Y-127246045D01*
X104244678Y-127275647D01*
X104154742Y-127323719D01*
X104075912Y-127388412D01*
X104011219Y-127467242D01*
X103963147Y-127557178D01*
X103933545Y-127654764D01*
X103923549Y-127756250D01*
X103923549Y-128193750D01*
X103933545Y-128295236D01*
X103963147Y-128392822D01*
X104011219Y-128482758D01*
X104075912Y-128561588D01*
X104154742Y-128626281D01*
X104244678Y-128674353D01*
X104342264Y-128703955D01*
X104443750Y-128713951D01*
X104837910Y-128713951D01*
X104940137Y-128816178D01*
X104937723Y-128820694D01*
X104912175Y-128904914D01*
X104903549Y-128992500D01*
X104903549Y-129287500D01*
X104912175Y-129375086D01*
X104937723Y-129459306D01*
X104979211Y-129536924D01*
X105035044Y-129604956D01*
X105059467Y-129625000D01*
X105035044Y-129645044D01*
X104979211Y-129713076D01*
X104937723Y-129790694D01*
X104912175Y-129874914D01*
X104903549Y-129962500D01*
X104903549Y-130257500D01*
X104912175Y-130345086D01*
X104937723Y-130429306D01*
X104979211Y-130506924D01*
X105035044Y-130574956D01*
X105103076Y-130630789D01*
X105180694Y-130672277D01*
X105264914Y-130697825D01*
X105352500Y-130706451D01*
X105697500Y-130706451D01*
X105785086Y-130697825D01*
X105869306Y-130672277D01*
X105946924Y-130630789D01*
X106000000Y-130587230D01*
X106053076Y-130630789D01*
X106130694Y-130672277D01*
X106214914Y-130697825D01*
X106302500Y-130706451D01*
X106647500Y-130706451D01*
X106735086Y-130697825D01*
X106819306Y-130672277D01*
X106896924Y-130630789D01*
X106950000Y-130587230D01*
X107000000Y-130628265D01*
X107000001Y-131279124D01*
X106997945Y-131300000D01*
X107006150Y-131383314D01*
X107027863Y-131454888D01*
X107030453Y-131463427D01*
X107069917Y-131537260D01*
X107084847Y-131555452D01*
X107102919Y-131577472D01*
X107123027Y-131601974D01*
X107139239Y-131615279D01*
X107695857Y-132171898D01*
X104910204Y-132170000D01*
X104851473Y-132175764D01*
X104795195Y-132192836D01*
X104743329Y-132220559D01*
X104697868Y-132257868D01*
X104660559Y-132303329D01*
X104632836Y-132355195D01*
X104615764Y-132411473D01*
X104610000Y-132470000D01*
X104610000Y-132888308D01*
X104588416Y-132925000D01*
X103290000Y-132925000D01*
X103231473Y-132930764D01*
X103175195Y-132947836D01*
X103123329Y-132975559D01*
X103077868Y-133012868D01*
X103040559Y-133058329D01*
X103012836Y-133110195D01*
X102995764Y-133166473D01*
X102990000Y-133225000D01*
X100325000Y-133225000D01*
X100325000Y-126181250D01*
X103923549Y-126181250D01*
X103923549Y-126618750D01*
X103933545Y-126720236D01*
X103963147Y-126817822D01*
X104011219Y-126907758D01*
X104075912Y-126986588D01*
X104154742Y-127051281D01*
X104244678Y-127099353D01*
X104342264Y-127128955D01*
X104443750Y-127138951D01*
X104956250Y-127138951D01*
X105057736Y-127128955D01*
X105155322Y-127099353D01*
X105245258Y-127051281D01*
X105324088Y-126986588D01*
X105388781Y-126907758D01*
X105421659Y-126846247D01*
X105461219Y-126920258D01*
X105525912Y-126999088D01*
X105604742Y-127063781D01*
X105694678Y-127111853D01*
X105792264Y-127141455D01*
X105893750Y-127151451D01*
X106406250Y-127151451D01*
X106507736Y-127141455D01*
X106605322Y-127111853D01*
X106695258Y-127063781D01*
X106774088Y-126999088D01*
X106838781Y-126920258D01*
X106881681Y-126839997D01*
X106911219Y-126895258D01*
X106975912Y-126974088D01*
X107054742Y-127038781D01*
X107144678Y-127086853D01*
X107242264Y-127116455D01*
X107343750Y-127126451D01*
X107856250Y-127126451D01*
X107957736Y-127116455D01*
X108055322Y-127086853D01*
X108145258Y-127038781D01*
X108224088Y-126974088D01*
X108288781Y-126895258D01*
X108336853Y-126805322D01*
X108366455Y-126707736D01*
X108376451Y-126606250D01*
X108376451Y-126168750D01*
X108366455Y-126067264D01*
X108336853Y-125969678D01*
X108288781Y-125879742D01*
X108224088Y-125800912D01*
X108145258Y-125736219D01*
X108055322Y-125688147D01*
X108025000Y-125678949D01*
X108025000Y-124194239D01*
X108104888Y-124114351D01*
X108176022Y-124007890D01*
X108225021Y-123889598D01*
X108250000Y-123764019D01*
X108250000Y-123635981D01*
X108225021Y-123510402D01*
X108176022Y-123392110D01*
X108104888Y-123285649D01*
X108014351Y-123195112D01*
X107907890Y-123123978D01*
X107789598Y-123074979D01*
X107664019Y-123050000D01*
X107535981Y-123050000D01*
X107410402Y-123074979D01*
X107292110Y-123123978D01*
X107185649Y-123195112D01*
X107095112Y-123285649D01*
X107023978Y-123392110D01*
X106974979Y-123510402D01*
X106950000Y-123635981D01*
X106950000Y-123764019D01*
X106974979Y-123889598D01*
X107023978Y-124007890D01*
X107095112Y-124114351D01*
X107175000Y-124194239D01*
X107175001Y-125678949D01*
X107144678Y-125688147D01*
X107054742Y-125736219D01*
X106975912Y-125800912D01*
X106911219Y-125879742D01*
X106868319Y-125960003D01*
X106838781Y-125904742D01*
X106774088Y-125825912D01*
X106695258Y-125761219D01*
X106625000Y-125723665D01*
X106625000Y-125494239D01*
X106704888Y-125414351D01*
X106776022Y-125307890D01*
X106825021Y-125189598D01*
X106850000Y-125064019D01*
X106850000Y-124935981D01*
X106825021Y-124810402D01*
X106776022Y-124692110D01*
X106704888Y-124585649D01*
X106614351Y-124495112D01*
X106507890Y-124423978D01*
X106389598Y-124374979D01*
X106264019Y-124350000D01*
X106135981Y-124350000D01*
X106010402Y-124374979D01*
X105892110Y-124423978D01*
X105785649Y-124495112D01*
X105695112Y-124585649D01*
X105623978Y-124692110D01*
X105574979Y-124810402D01*
X105550000Y-124935981D01*
X105550000Y-125064019D01*
X105574979Y-125189598D01*
X105623978Y-125307890D01*
X105695112Y-125414351D01*
X105775000Y-125494239D01*
X105775001Y-125688782D01*
X105694678Y-125713147D01*
X105604742Y-125761219D01*
X105525912Y-125825912D01*
X105461219Y-125904742D01*
X105428341Y-125966253D01*
X105388781Y-125892242D01*
X105324088Y-125813412D01*
X105245258Y-125748719D01*
X105155322Y-125700647D01*
X105125000Y-125691449D01*
X105125000Y-125494239D01*
X105204888Y-125414351D01*
X105276022Y-125307890D01*
X105325021Y-125189598D01*
X105350000Y-125064019D01*
X105350000Y-124935981D01*
X105325021Y-124810402D01*
X105276022Y-124692110D01*
X105204888Y-124585649D01*
X105114351Y-124495112D01*
X105007890Y-124423978D01*
X104889598Y-124374979D01*
X104764019Y-124350000D01*
X104635981Y-124350000D01*
X104510402Y-124374979D01*
X104392110Y-124423978D01*
X104285649Y-124495112D01*
X104195112Y-124585649D01*
X104123978Y-124692110D01*
X104074979Y-124810402D01*
X104050000Y-124935981D01*
X104050000Y-125064019D01*
X104074979Y-125189598D01*
X104123978Y-125307890D01*
X104195112Y-125414351D01*
X104275000Y-125494239D01*
X104275000Y-125691449D01*
X104244678Y-125700647D01*
X104154742Y-125748719D01*
X104075912Y-125813412D01*
X104011219Y-125892242D01*
X103963147Y-125982178D01*
X103933545Y-126079764D01*
X103923549Y-126181250D01*
X100325000Y-126181250D01*
X100325000Y-122015897D01*
X100358429Y-121674960D01*
X100452827Y-121362301D01*
X100606156Y-121073932D01*
X100812578Y-120820833D01*
X101064223Y-120612655D01*
X101351518Y-120457315D01*
X101663508Y-120360739D01*
X102003540Y-120325000D01*
X127984103Y-120325000D01*
X128325040Y-120358429D01*
%TD*%
M02*
